<svg width="223" height="90" viewBox="0 0 223 90" fill="none" xmlns="http://www.w3.org/2000/svg">
<rect width="14" height="14" fill="#0277FA" fill-opacity="0.5"/>
<rect y="19" width="14" height="14" fill="#0277FA" fill-opacity="0.5"/>
<rect y="38" width="14" height="14" fill="#0277FA" fill-opacity="0.5"/>
<rect y="57" width="14" height="14" fill="#0277FA" fill-opacity="0.5"/>
<rect y="76" width="14" height="14" fill="#0277FA" fill-opacity="0.5"/>
<rect x="19" width="14" height="14" fill="#0277FA" fill-opacity="0.5"/>
<rect x="19" y="19" width="14" height="14" fill="#0277FA" fill-opacity="0.5"/>
<rect x="19" y="38" width="14" height="14" fill="#0277FA" fill-opacity="0.5"/>
<rect x="19" y="57" width="14" height="14" fill="#0277FA" fill-opacity="0.5"/>
<rect x="19" y="76" width="14" height="14" fill="#0277FA" fill-opacity="0.5"/>
<rect x="38" width="14" height="14" fill="#0277FA" fill-opacity="0.5"/>
<rect x="38" y="19" width="14" height="14" fill="#0277FA" fill-opacity="0.5"/>
<rect x="38" y="38" width="14" height="14" fill="#0277FA" fill-opacity="0.5"/>
<rect x="38" y="57" width="14" height="14" fill="#0277FA" fill-opacity="0.5"/>
<rect x="38" y="76" width="14" height="14" fill="#0277FA" fill-opacity="0.5"/>
<rect x="57" width="14" height="14" fill="#0277FA" fill-opacity="0.5"/>
<rect x="57" y="19" width="14" height="14" fill="#0277FA" fill-opacity="0.5"/>
<rect x="57" y="38" width="14" height="14" fill="#0277FA" fill-opacity="0.5"/>
<rect x="57" y="57" width="14" height="14" fill="#0277FA" fill-opacity="0.5"/>
<rect x="57" y="76" width="14" height="14" fill="#0277FA" fill-opacity="0.5"/>
<rect x="76" width="14" height="14" fill="#0277FA" fill-opacity="0.5"/>
<rect x="76" y="19" width="14" height="14" fill="#0277FA" fill-opacity="0.5"/>
<rect x="76" y="38" width="14" height="14" fill="#0277FA" fill-opacity="0.5"/>
<rect x="76" y="57" width="14" height="14" fill="#0277FA" fill-opacity="0.5"/>
<rect x="76" y="76" width="14" height="14" fill="#0277FA" fill-opacity="0.5"/>
<rect x="95" width="14" height="14" fill="#0277FA" fill-opacity="0.5"/>
<rect x="95" y="19" width="14" height="14" fill="#0277FA" fill-opacity="0.5"/>
<rect x="95" y="38" width="14" height="14" fill="#0277FA" fill-opacity="0.5"/>
<rect x="95" y="57" width="14" height="14" fill="#0277FA" fill-opacity="0.5"/>
<rect x="95" y="76" width="14" height="14" fill="#0277FA" fill-opacity="0.5"/>
<rect x="114" width="14" height="14" fill="#0277FA" fill-opacity="0.5"/>
<rect x="114" y="19" width="14" height="14" fill="#0277FA" fill-opacity="0.5"/>
<rect x="114" y="38" width="14" height="14" fill="#0277FA" fill-opacity="0.5"/>
<rect x="114" y="57" width="14" height="14" fill="#0277FA" fill-opacity="0.5"/>
<rect x="114" y="76" width="14" height="14" fill="#0277FA" fill-opacity="0.5"/>
<rect x="133" width="14" height="14" fill="#0277FA" fill-opacity="0.5"/>
<rect x="133" y="19" width="14" height="14" fill="#0277FA" fill-opacity="0.5"/>
<rect x="133" y="38" width="14" height="14" fill="#0277FA" fill-opacity="0.5"/>
<rect x="133" y="57" width="14" height="14" fill="#0277FA" fill-opacity="0.5"/>
<rect x="133" y="76" width="14" height="14" fill="#0277FA" fill-opacity="0.5"/>
<rect x="152" width="14" height="14" fill="#0277FA" fill-opacity="0.5"/>
<rect x="152" y="19" width="14" height="14" fill="#0277FA" fill-opacity="0.5"/>
<rect x="152" y="38" width="14" height="14" fill="#0277FA" fill-opacity="0.5"/>
<rect x="152" y="57" width="14" height="14" fill="#0277FA" fill-opacity="0.5"/>
<rect x="171" width="14" height="14" fill="#0277FA" fill-opacity="0.5"/>
<rect x="171" y="19" width="14" height="14" fill="#0277FA" fill-opacity="0.5"/>
<rect x="171" y="38" width="14" height="14" fill="#0277FA" fill-opacity="0.5"/>
<rect x="190" width="14" height="14" fill="#0277FA" fill-opacity="0.5"/>
<rect x="190" y="19" width="14" height="14" fill="#0277FA" fill-opacity="0.5"/>
<rect x="209" width="14" height="14" fill="#0277FA" fill-opacity="0.5"/>
</svg>
