<svg width="25" height="25" viewBox="0 0 25 25" fill="none" xmlns="http://www.w3.org/2000/svg">
<path d="M21 14.0885V11.2963C20.9971 9.13552 20.1885 7.05353 18.7321 5.45735C17.2758 3.86116 15.2764 2.86555 13.125 2.66516V0.875C13.125 0.642936 13.0328 0.420376 12.8687 0.256282C12.7046 0.0921872 12.4821 0 12.25 0C12.0179 0 11.7954 0.0921872 11.6313 0.256282C11.4672 0.420376 11.375 0.642936 11.375 0.875V2.66534C9.22361 2.86572 7.22429 3.86131 5.76794 5.45746C4.31159 7.05361 3.50291 9.13555 3.5 11.2963V14.0883C2.51257 14.2912 1.62529 14.8284 0.987739 15.6093C0.350186 16.3901 0.00133905 17.3669 0 18.375C0.000764294 19.071 0.277571 19.7382 0.769689 20.2303C1.26181 20.7224 1.92904 20.9992 2.625 21H7.96346C8.16521 21.988 8.70205 22.8759 9.48314 23.5136C10.2642 24.1513 11.2416 24.4997 12.25 24.4997C13.2584 24.4997 14.2358 24.1513 15.0169 23.5136C15.798 22.8759 16.3348 21.988 16.5365 21H21.875C22.571 20.9992 23.2382 20.7224 23.7303 20.2303C24.2224 19.7382 24.4992 19.071 24.5 18.375C24.4986 17.367 24.1498 16.3902 23.5122 15.6094C22.8747 14.8286 21.9874 14.2914 21 14.0885ZM5.25 11.2963C5.25232 9.46133 5.98226 7.70223 7.27974 6.40474C8.57723 5.10726 10.3363 4.37732 12.1712 4.375H12.3288C14.1637 4.37732 15.9228 5.10726 17.2203 6.40474C18.5177 7.70223 19.2477 9.46133 19.25 11.2963V14H5.25V11.2963ZM12.25 22.75C11.7089 22.7483 11.1816 22.5792 10.7405 22.2659C10.2993 21.9526 9.96602 21.5104 9.78626 21H14.7137C14.534 21.5104 14.2007 21.9526 13.7595 22.2659C13.3184 22.5792 12.7911 22.7483 12.25 22.75ZM21.875 19.25H2.625C2.39298 19.2499 2.1705 19.1576 2.00644 18.9936C1.84237 18.8295 1.75014 18.607 1.75 18.375C1.75076 17.679 2.02757 17.0118 2.51969 16.5197C3.01181 16.0276 3.67904 15.7508 4.375 15.75H20.125C20.821 15.7508 21.4882 16.0276 21.9803 16.5197C22.4724 17.0118 22.7492 17.679 22.75 18.375C22.7499 18.607 22.6576 18.8295 22.4936 18.9936C22.3295 19.1576 22.107 19.2499 21.875 19.25Z" fill="white"/>
</svg>
