<svg width="24" height="24" viewBox="0 0 24 24" fill="none" xmlns="http://www.w3.org/2000/svg">
<path d="M8.72281 11.6615C8.72281 11.8823 8.5462 12.0589 8.32543 12.0589H6.83401C6.61325 12.0589 6.43663 11.8823 6.43663 11.6615V10.1701C6.43663 9.94931 6.61325 9.77269 6.83401 9.77269H8.32543C8.5462 9.77269 8.72281 9.94931 8.72281 10.1701V11.6615ZM11.8381 10.175C11.8381 9.95421 11.6615 9.7776 11.4407 9.7776H9.94931C9.72854 9.7776 9.55192 9.95421 9.55192 10.175V11.6664C9.55192 11.8872 9.72854 12.0638 9.94931 12.0638H11.4407C11.6615 12.0638 11.8381 11.8872 11.8381 11.6664V10.175ZM14.9534 10.175C14.9534 9.95421 14.7768 9.7776 14.556 9.7776H13.0646C12.8438 9.7776 12.6672 9.95421 12.6672 10.175V11.6664C12.6672 11.8872 12.8438 12.0638 13.0646 12.0638H14.556C14.7768 12.0638 14.9534 11.8872 14.9534 11.6664V10.175ZM8.72281 13.2069C8.72281 12.9861 8.5462 12.8095 8.32543 12.8095H6.83401C6.61325 12.8095 6.43663 12.9861 6.43663 13.2069V14.6983C6.43663 14.9191 6.61325 15.0957 6.83401 15.0957H8.32543C8.5462 15.0957 8.72281 14.9191 8.72281 14.6983V13.2069ZM11.8381 13.2069C11.8381 12.9861 11.6615 12.8095 11.4407 12.8095H9.94931C9.72854 12.8095 9.55192 12.9861 9.55192 13.2069V14.6983C9.55192 14.9191 9.72854 15.0957 9.94931 15.0957H11.4407C11.6615 15.0957 11.8381 14.9191 11.8381 14.6983V13.2069ZM14.556 12.8095H13.0646C12.8438 12.8095 12.6672 12.9861 12.6672 13.2069V14.6983C12.6672 14.9191 12.8438 15.0957 13.0646 15.0957H14.556C14.7768 15.0957 14.9534 14.9191 14.9534 14.6983V13.2069C14.9534 12.9861 14.7768 12.8095 14.556 12.8095ZM5.20523 15.8414H3.71872C3.49796 15.8414 3.32134 16.018 3.32134 16.2388V17.7302C3.32134 17.9509 3.49796 18.1276 3.71872 18.1276H5.21014C5.43091 18.1276 5.60752 17.9509 5.60752 17.7302V16.2388C5.60752 16.018 5.426 15.8414 5.20523 15.8414ZM5.60752 13.2069C5.60752 12.9861 5.43091 12.8095 5.21014 12.8095H3.71872C3.49796 12.8095 3.32134 12.9861 3.32134 13.2069V14.6983C3.32134 14.9191 3.49796 15.0957 3.71872 15.0957H5.21014C5.43091 15.0957 5.60752 14.9191 5.60752 14.6983V13.2069ZM11.4407 15.8414H9.94931C9.72854 15.8414 9.55192 16.018 9.55192 16.2388V17.7302C9.55192 17.9509 9.72854 18.1276 9.94931 18.1276H11.4407C11.6615 18.1276 11.8381 17.9509 11.8381 17.7302V16.2388C11.8381 16.018 11.6615 15.8414 11.4407 15.8414ZM8.32543 15.8414H6.83401C6.61325 15.8414 6.43663 16.018 6.43663 16.2388V17.7302C6.43663 17.9509 6.61325 18.1276 6.83401 18.1276H8.32543C8.5462 18.1276 8.72281 17.9509 8.72281 17.7302V16.2388C8.72281 16.018 8.5462 15.8414 8.32543 15.8414ZM17.6713 12.0638C17.8921 12.0638 18.0687 11.8872 18.0687 11.6664V10.175C18.0687 9.95421 17.8921 9.7776 17.6713 9.7776H16.1799C15.9591 9.7776 15.7825 9.95421 15.7825 10.175V11.6664C15.7825 11.8872 15.9591 12.0638 16.1799 12.0638H17.6713ZM2.34015 21.3655H13.6582C13.4767 20.7964 13.3737 20.1881 13.3688 19.5601H2.34015C2.04579 19.5601 1.8103 19.3197 1.8103 19.0303V8.36958H19.5552V13.3295C20.1832 13.3344 20.7915 13.4276 21.3606 13.6092V4.63614C21.3606 3.34587 20.3107 2.29599 19.0204 2.29599H16.4007V0.853639C16.4007 0.382666 16.018 0 15.547 0H14.2175C13.7465 0 13.3639 0.382666 13.3639 0.853639V2.3009H7.99673V0.853639C7.99673 0.382666 7.61406 0 7.14309 0H5.81357C5.3426 0 4.95993 0.382666 4.95993 0.853639V2.3009H2.34015C1.04988 2.3009 0 3.35078 0 4.64105V19.0303C0 20.3156 1.04988 21.3655 2.34015 21.3655ZM24 19.4914C24 21.9591 21.9984 23.9608 19.5307 23.9608C17.063 23.9608 15.0613 21.9591 15.0613 19.4914C15.0613 17.0237 17.063 15.0221 19.5307 15.0221C21.9984 15.0221 24 17.0237 24 19.4914ZM21.7874 18.3336C21.7874 18.1913 21.7334 18.054 21.6304 17.9558C21.4195 17.7449 21.0809 17.7449 20.87 17.9558L18.9272 19.8986L18.1815 19.1529C17.9706 18.9419 17.6321 18.9419 17.4211 19.1529C17.3181 19.2559 17.2641 19.3884 17.2641 19.5307C17.2641 19.6729 17.3181 19.8103 17.4211 19.9084L18.5446 21.0319C18.7555 21.2428 19.094 21.2428 19.305 21.0319L21.6255 18.7114C21.7334 18.6132 21.7874 18.4759 21.7874 18.3336Z" fill="#0277FA"/>
</svg>
