<svg width="40" height="45" viewBox="0 0 40 45" fill="none" xmlns="http://www.w3.org/2000/svg">
<path d="M39.4564 6.27006C39.376 5.69243 38.9604 5.21729 38.3986 5.06112L20.3924 0.0535853C20.1357 -0.0178617 19.8645 -0.0178617 19.6076 0.0535853L1.60142 5.06112C1.0396 5.21729 0.624002 5.69224 0.543575 6.27006C0.439137 7.02103 -1.94341 24.7649 4.16766 33.5919C10.2715 42.4084 19.276 44.6677 19.6562 44.7597C19.7693 44.787 19.8844 44.8005 20 44.8005C20.1156 44.8005 20.2307 44.7868 20.3438 44.7597C20.7242 44.6677 29.7287 42.4084 35.8323 33.5919C41.9434 24.7651 39.5609 7.02123 39.4564 6.27006ZM31.6117 16.6291L19.3296 28.9111C19.0439 29.1969 18.6691 29.34 18.2944 29.34C17.9198 29.34 17.545 29.1971 17.2592 28.9111L9.66537 21.3173C9.39071 21.0428 9.23649 20.6703 9.23649 20.2821C9.23649 19.8938 9.3909 19.5213 9.66537 19.2469L11.1732 17.7391C11.7449 17.1675 12.672 17.1673 13.2436 17.7391L18.2944 22.7899L28.0335 13.0507C28.308 12.776 28.6804 12.6218 29.0687 12.6218C29.457 12.6218 29.8294 12.776 30.1039 13.0507L31.6117 14.5585C32.1835 15.1303 32.1835 16.0573 31.6117 16.6291Z" fill="white"/>
</svg>
