<svg width="24" height="20" viewBox="0 0 24 20" fill="none" xmlns="http://www.w3.org/2000/svg">
<path d="M8.92028 12.2C11.6154 12.2 13.8003 9.78232 13.8003 6.79999C13.8003 3.81765 11.6154 1.39999 8.92028 1.39999C6.22513 1.39999 4.04028 3.81765 4.04028 6.79999C4.04028 9.78232 6.22513 12.2 8.92028 12.2Z" fill="white"/>
<path d="M13.44 12.84C12.2 13.96 10.64 14.64 8.91999 14.64C7.19999 14.64 5.6 13.96 4.4 12.8C2.2 13.8 0 15.08 0 17.08V17.92C0 18.92 0.799999 19.72 1.8 19.72H16.08C17.08 19.72 17.88 18.92 17.88 17.92V17.08C17.84 15.08 15.68 13.84 13.44 12.84Z" fill="white"/>
<path d="M19.5999 8.84C19.5199 8.8 19.4799 8.76 19.3999 8.72C19.2399 8.64 19.0399 8.64 18.8799 8.76C18.0399 9.28 17.0399 9.6 15.9999 9.6C15.8799 9.6 15.7199 9.6 15.5999 9.6C15.3999 10.12 15.1999 10.64 14.9199 11.08C15.0799 11.16 15.2799 11.2 15.4799 11.32C17.7599 12.32 19.3599 13.56 20.4799 15.24H22.3999C23.2799 15.24 23.9999 14.52 23.9999 13.64V12.88C23.9999 10.92 21.7199 9.72 19.5999 8.84Z" fill="white"/>
<path d="M19.1598 3.56C19.1598 1.6 17.7198 0 15.9998 0C15.1198 0 14.3598 0.4 13.7598 0.999999C15.1598 2.44 16.0398 4.48 16.0398 6.75999C16.0398 6.87999 16.0398 6.95999 16.0398 7.07999C17.7598 7.07999 19.1598 5.52 19.1598 3.56Z" fill="white"/>
</svg>
