<svg width="24" height="20" viewBox="0 0 24 20" fill="none" xmlns="http://www.w3.org/2000/svg">
<path d="M8.92022 12.2C11.6154 12.2 13.8002 9.78232 13.8002 6.79999C13.8002 3.81765 11.6154 1.39999 8.92022 1.39999C6.22507 1.39999 4.04022 3.81765 4.04022 6.79999C4.04022 9.78232 6.22507 12.2 8.92022 12.2Z" fill="#0277FA"/>
<path d="M13.44 12.84C12.2 13.96 10.64 14.64 8.91999 14.64C7.19999 14.64 5.6 13.96 4.4 12.8C2.2 13.8 0 15.08 0 17.08V17.92C0 18.92 0.799999 19.72 1.8 19.72H16.08C17.08 19.72 17.88 18.92 17.88 17.92V17.08C17.84 15.08 15.68 13.84 13.44 12.84Z" fill="#0277FA"/>
<path d="M19.6 8.84C19.52 8.8 19.48 8.76 19.4 8.72C19.24 8.64 19.04 8.64 18.88 8.76C18.04 9.28 17.04 9.6 16 9.6C15.88 9.6 15.72 9.6 15.6 9.6C15.4 10.12 15.2 10.64 14.92 11.08C15.08 11.16 15.28 11.2 15.48 11.32C17.76 12.32 19.36 13.56 20.48 15.24H22.4C23.28 15.24 24 14.52 24 13.64V12.88C24 10.92 21.72 9.72 19.6 8.84Z" fill="#0277FA"/>
<path d="M19.1599 3.56C19.1599 1.6 17.7199 0 15.9999 0C15.1199 0 14.3599 0.4 13.7599 0.999999C15.1599 2.44 16.0399 4.48 16.0399 6.75999C16.0399 6.87999 16.0399 6.95999 16.0399 7.07999C17.7599 7.07999 19.1599 5.52 19.1599 3.56Z" fill="#0277FA"/>
</svg>
