<svg width="70" height="42" viewBox="0 0 70 42" fill="none" xmlns="http://www.w3.org/2000/svg">
<path d="M12.118 18.8251C11.9503 18.7286 11.7602 18.6775 11.569 18.6775C11.1735 18.6775 10.8206 18.8831 10.6249 19.2274C10.4745 19.4855 10.4347 19.7785 10.5096 20.0578C10.5846 20.3377 10.7662 20.5724 11.0211 20.7178C11.1879 20.814 11.376 20.8642 11.5654 20.8642C11.9558 20.8642 12.3218 20.6556 12.5206 20.3196C12.6637 20.0714 12.7025 19.7752 12.6266 19.4908C12.551 19.2068 12.3702 18.9704 12.118 18.8251Z" fill="white"/>
<path d="M15.6689 29.98C15.647 29.9585 15.6303 29.9324 15.6124 29.9074C15.6031 29.8946 15.5916 29.8838 15.5835 29.8702C15.5834 29.8701 15.5834 29.8699 15.5832 29.8699L15.552 29.8172L13.9752 27.1536C13.9737 27.155 13.9719 27.1555 13.9706 27.1568C13.9402 27.181 13.9074 27.2017 13.8732 27.2186C13.8677 27.2215 13.8624 27.2241 13.8568 27.2266C13.8218 27.2427 13.7853 27.255 13.7478 27.2634C13.7422 27.2646 13.7367 27.2656 13.7311 27.2666C13.6979 27.2729 13.6641 27.2772 13.6299 27.2772C13.625 27.2772 13.62 27.2763 13.6148 27.276C13.61 27.276 13.6049 27.2755 13.5999 27.2752C13.5603 27.273 13.5206 27.2669 13.4817 27.2558C13.4798 27.2553 13.478 27.2555 13.4764 27.2548L9.87169 29.3289C8.91662 29.888 8.58445 31.127 9.1347 32.089C9.49225 32.7014 10.1695 33.0845 10.8996 33.0845C11.2487 33.0845 11.5908 32.9945 11.8888 32.8242L14.8895 31.0926C15.147 30.944 15.4762 31.0298 15.6285 31.285C15.7809 31.5402 15.6998 31.8706 15.4469 32.0266C14.5235 32.596 14.2102 33.8213 14.749 34.7583C15.1089 35.3756 15.7835 35.7607 16.5086 35.7607C16.8572 35.7607 17.2004 35.669 17.5014 35.496L20.0159 34.0366C20.2734 33.8875 20.603 33.9724 20.7557 34.228C20.9086 34.4832 20.8277 34.8141 20.5743 34.9701C19.6501 35.5399 19.3388 36.7645 19.8807 37.7003C20.2396 38.3211 20.9113 38.7066 21.6337 38.7066C21.9842 38.7066 22.3302 38.6139 22.634 38.4393L25.8559 36.5763C25.9417 36.5267 26.0354 36.5031 26.1277 36.5031C26.3131 36.5031 26.4936 36.598 26.5952 36.7685C26.7476 37.0237 26.6669 37.3542 26.4136 37.5104C25.4893 38.0803 25.1781 39.3048 25.7203 40.2405C26.0763 40.862 26.7461 41.2468 27.4697 41.2468C27.8216 41.2468 28.1694 41.1539 28.4753 40.9788L31.5712 39.1856L15.7797 30.0648C15.7389 30.0409 15.7019 30.0124 15.6689 29.98Z" fill="white"/>
<path d="M34.3405 13.8661C30.8653 13.8766 27.2925 13.5812 24.7752 11.2004C24.6885 11.1192 24.6077 11.0363 24.5298 10.9525C24.51 10.9313 24.4908 10.9101 24.4716 10.8888C24.4105 10.8208 24.3523 10.7523 24.2971 10.6829C24.282 10.664 24.2656 10.645 24.2507 10.6258C24.1913 10.5485 24.1362 10.4706 24.0842 10.3921C24.0581 10.3532 24.0344 10.3139 24.0102 10.2746C23.9845 10.2323 23.9596 10.1898 23.9361 10.1472C23.919 10.1168 23.8987 10.0867 23.883 10.0562L22.3022 12.7976L19.3995 17.8242L14.6212 26.1046L16.4473 29.194L32.6604 38.5582C32.6607 38.5584 32.6612 38.5587 32.6615 38.5591C32.7071 38.5854 32.7536 38.6103 32.8005 38.6334C32.8207 38.6423 32.841 38.6518 32.861 38.6589C32.8915 38.6697 32.9201 38.6838 32.9476 38.6995C33.2295 38.8153 33.5315 38.8758 33.837 38.8758C34.6867 38.8757 35.4771 38.4208 35.8999 37.6889C36.5375 36.5861 36.1715 35.1488 35.0839 34.4849C34.8297 34.3297 34.7476 33.9987 34.8998 33.7426C35.0521 33.4864 35.3821 33.4005 35.6398 33.5501L39.307 35.6743C39.6629 35.878 40.0705 35.9862 40.4835 35.9862C41.3351 35.9862 42.1253 35.5337 42.5462 34.805C43.186 33.7056 42.8183 32.263 41.7276 31.5872C41.4749 31.4307 41.3946 31.1003 41.5472 30.8452C41.6999 30.5902 42.0288 30.5051 42.2863 30.6539L45.159 32.3157C45.5134 32.5196 45.9187 32.6275 46.3303 32.6275C47.1811 32.6275 47.9708 32.1749 48.3907 31.4466C49.0275 30.3452 48.6607 28.9018 47.5731 28.2283C47.3205 28.0717 47.2401 27.7411 47.3933 27.486C47.5462 27.2308 47.8758 27.146 48.1328 27.2955L51.5448 29.2779C51.8954 29.4772 52.3013 29.5842 52.7144 29.5842C53.572 29.5842 54.367 29.1328 54.7894 28.4067C55.1811 27.72 55.2057 26.8973 54.8597 26.183L34.3405 13.8661Z" fill="white"/>
<path d="M58.7439 19.3069C58.4527 19.3069 58.1781 19.4211 57.9705 19.6284C57.5452 20.0543 57.5452 20.7479 57.971 21.1739C58.1781 21.3809 58.4527 21.4953 58.7439 21.4953C59.0361 21.4953 59.3131 21.3805 59.5232 21.1721C59.9426 20.7485 59.9426 20.0537 59.5197 19.6266C59.3129 19.4216 59.0361 19.3069 58.7439 19.3069Z" fill="white"/>
<path d="M13.48 25.9058C13.49 25.8804 13.5013 25.8556 13.515 25.8317L15.4384 22.5086L18.4731 17.2535L23.5878 8.39054C23.5889 8.38341 23.5912 8.37661 23.5924 8.36948C23.5959 8.35107 23.601 8.33283 23.6048 8.31475C23.6145 8.27031 23.6242 8.22636 23.6365 8.18308C23.6451 8.15206 23.6559 8.12155 23.666 8.09087C23.6758 8.06152 23.6851 8.03183 23.6961 8.00264C23.7002 7.99186 23.703 7.98075 23.7073 7.96981C23.814 7.69966 24.0106 7.36416 24.3702 7.04443L24.6853 6.49533L16.755 1.92249L16.0734 3.10359C16.0641 3.17208 16.0422 3.23975 16.0058 3.30326L6.26172 20.1805C6.2264 20.2416 6.1798 20.2943 6.12507 20.3368L5.50085 21.4182L13.4308 25.9904L13.48 25.9058ZM11.5654 21.9524C11.1857 21.9524 10.8102 21.852 10.4798 21.662C9.9727 21.3721 9.60952 20.9021 9.45877 20.3397C9.30819 19.7777 9.38762 19.1901 9.68215 18.685C10.0646 18.0114 10.7888 17.5898 11.5689 17.5898C11.9503 17.5898 12.328 17.691 12.6606 17.8825C13.1656 18.1734 13.5266 18.645 13.6775 19.2105C13.828 19.7751 13.7507 20.364 13.4598 20.8688C13.0633 21.5389 12.3386 21.9524 11.5654 21.9524Z" fill="white"/>
<path d="M60.7984 0.889526L55.2075 4.10896L63.3536 18.2277L64.4085 20.0555L70 16.8255L60.7984 0.889526Z" fill="white"/>
<path d="M24.659 8.58795C24.6583 8.59292 24.6572 8.5979 24.6563 8.60287C24.6325 8.75495 24.6393 8.91515 24.6747 9.08016C24.6781 9.09591 24.6824 9.11167 24.6864 9.12742C24.6917 9.14948 24.6973 9.17154 24.7039 9.19359C24.7107 9.21648 24.718 9.23953 24.7258 9.26275C24.7305 9.27651 24.7356 9.29044 24.7406 9.30437C24.751 9.3329 24.7618 9.36159 24.7739 9.39028C24.7764 9.39641 24.7791 9.40239 24.7817 9.40836C24.8605 9.59111 24.9711 9.77652 25.1117 9.95993C25.1129 9.96159 25.1144 9.96325 25.1155 9.96491C25.1416 9.99874 25.1691 10.0326 25.1973 10.0664C25.2034 10.0737 25.2096 10.081 25.2159 10.0883C25.2414 10.1183 25.2676 10.1485 25.295 10.1783C25.3068 10.1913 25.319 10.2042 25.3311 10.217C25.3547 10.2422 25.3782 10.2674 25.4028 10.2924C25.4408 10.3309 25.4797 10.3694 25.5205 10.4075C27.723 12.4905 31.0521 12.7774 34.3218 12.7774L34.4854 12.7772C34.4856 12.7772 34.4861 12.7772 34.4866 12.7772C34.4866 12.7772 34.4866 12.7772 34.4868 12.7772H34.4884C34.4889 12.7772 34.4894 12.7772 34.4901 12.7772C34.5012 12.7772 34.5121 12.7787 34.5233 12.7795C34.5355 12.7802 34.5478 12.7802 34.5601 12.782C34.5753 12.784 34.5904 12.7877 34.6053 12.7908C34.6138 12.7926 34.6224 12.794 34.6307 12.7961C34.6448 12.7998 34.6584 12.8051 34.672 12.8099C34.6815 12.8132 34.6908 12.816 34.7 12.8197C34.7115 12.8245 34.7224 12.8306 34.7337 12.8362C34.7432 12.8409 34.7528 12.8449 34.7619 12.85L34.803 12.8739L53.7511 24.248L53.2627 23.4015L44.3464 7.97153L43.4386 8.24035C43.2565 8.29425 43.0597 8.24947 42.919 8.12194C41.4202 6.76372 40.1095 6.13104 38.7941 6.13104C37.7878 6.13104 36.9077 6.49357 35.9758 6.87715C35.072 7.2493 34.1375 7.63404 33.108 7.63404C32.812 7.63404 32.5161 7.6017 32.2289 7.53769C30.7469 7.208 29.4217 7.041 28.29 7.041C26.8749 7.041 25.7761 7.31464 25.1686 7.79474C25.1567 7.80668 25.1457 7.81961 25.1325 7.83039C24.9709 7.96323 24.85 8.10983 24.7678 8.26804C24.7558 8.29159 24.7437 8.31514 24.7334 8.33902C24.725 8.35859 24.7167 8.37833 24.7094 8.39823C24.7031 8.41581 24.6971 8.43372 24.6917 8.45179C24.6868 8.46705 24.6822 8.48247 24.6781 8.49806C24.6708 8.52808 24.6641 8.55793 24.659 8.58795Z" fill="white"/>
<path d="M63.7382 21.0707L62.6003 19.0986L53.1384 2.70605L45.2141 7.28537L45.2722 7.38338L47.9042 11.9456L53.19 21.1019L56.4673 26.7736L64.3916 22.2016L63.7405 21.0737C63.74 21.0729 63.7388 21.0719 63.7382 21.0707ZM60.2925 21.9414C59.8738 22.3567 59.325 22.5832 58.7439 22.5832C58.1622 22.5832 57.6144 22.356 57.2016 21.9434C56.3519 21.0926 56.3519 19.7095 57.2011 18.8594C57.6144 18.4463 58.1622 18.2191 58.7439 18.2191C59.325 18.2191 59.8738 18.4458 60.2889 18.8575C61.1338 19.7102 61.1338 21.0921 60.2925 21.9414Z" fill="white"/>
<path d="M14.7562 3.20948L9.19992 0L0 15.9351L5.55693 19.1451L14.7562 3.20948Z" fill="white"/>
</svg>
