<svg width="40" height="36" viewBox="0 0 40 36" fill="none" xmlns="http://www.w3.org/2000/svg">
<path d="M5.43808 34.5478C5.43808 34.5478 5.4017 35.4421 6.27628 35.4421C7.36457 35.4421 16.3589 35.4299 16.3589 35.4299L16.374 27.1677C16.374 27.1677 16.2316 25.8066 17.5518 25.8066H21.7367C23.2994 25.8066 23.2039 27.1677 23.2039 27.1677L23.1857 35.4042C23.1857 35.4042 31.7162 35.4042 33.0561 35.4042C34.1656 35.4042 34.1156 34.2916 34.1156 34.2916V19.0555L20.2043 6.68268L5.43808 19.0571V34.5478Z" fill="white"/>
<path d="M0 17.9053C0 17.9053 1.25199 20.2152 3.98787 17.9053L20.3289 4.08033L35.6484 17.8189C38.8132 20.1015 40 17.8189 40 17.8189L20.3289 0L0 17.9053Z" fill="white"/>
<path d="M35.2753 4.04834H31.3359L31.3526 8.82742L35.2753 12.1575V4.04834Z" fill="white"/>
</svg>
