<svg width="809" height="1190" viewBox="0 0 809 1190" fill="none" xmlns="http://www.w3.org/2000/svg">
<mask id="mask0_1626_723" style="mask-type:alpha" maskUnits="userSpaceOnUse" x="0" y="0" width="809" height="1190">
<rect width="809" height="1190" fill="#D9D9D9"/>
</mask>
<g mask="url(#mask0_1626_723)">
<rect width="809" height="1190" fill="#4042E2"/>
<path d="M474.25 176.602L809.5 -0.500045L809.5 353.704L474.25 176.602Z" fill="#6172E7"/>
<path d="M559.611 316L470 0H797L559.611 316Z" fill="#FF9F9F" fill-opacity="0.37"/>
<path d="M349.25 -333.907C358.377 -339.176 369.623 -339.176 378.75 -333.907L614.62 -197.727C623.747 -192.458 629.37 -182.719 629.37 -172.179V100.18C629.37 110.719 623.747 120.458 614.62 125.727L378.75 261.907C369.623 267.176 358.377 267.176 349.25 261.907L113.38 125.727C104.253 120.458 98.6302 110.719 98.6302 100.18V-172.18C98.6302 -182.719 104.253 -192.458 113.38 -197.727L349.25 -333.907Z" stroke="white" stroke-opacity="0.3"/>
<circle cx="751.5" cy="329.5" r="45.5" fill="#6AB8E8"/>
<path d="M304.864 862.516L98.5849 1407.31L-231.656 1089.45L304.864 862.516Z" fill="#6076EA" fill-opacity="0.74"/>
<path d="M435.975 1029.09L271.768 1462.76L8.88389 1209.74L435.975 1029.09Z" fill="#B9C4FF" fill-opacity="0.44"/>
<path d="M520.896 1073.21L799.121 1200.39L624.645 1319.07L520.896 1073.21Z" fill="#FF9F9F" fill-opacity="0.37"/>
<path d="M752 999L809 1200L601 1200L752 999Z" fill="#FF9F9F" fill-opacity="0.37"/>
<circle cx="731" cy="1054" r="66" fill="#F5B84E" fill-opacity="0.51"/>
</g>
</svg>
