<svg width="383" height="153" viewBox="0 0 383 153" fill="none" xmlns="http://www.w3.org/2000/svg">
<path d="M164.349 29.513C168.529 29.513 171.58 30.4201 173.501 32.2343C175.421 34.0335 176.381 36.5168 176.381 39.6842C176.381 41.1117 176.167 42.4798 175.739 43.7883C175.31 45.082 174.609 46.2345 173.634 47.2456C172.673 48.2568 171.388 49.0598 169.778 49.6546C168.168 50.2345 166.181 50.5245 163.817 50.5245H160.87V62.1232H154V29.513H164.349ZM163.994 35.1785H160.87V44.859H163.13C164.415 44.859 165.531 44.688 166.476 44.346C167.421 44.004 168.153 43.4686 168.67 42.74C169.187 42.0114 169.445 41.0745 169.445 39.9295C169.445 38.3236 169.002 37.134 168.116 36.3607C167.229 35.5726 165.856 35.1785 163.994 35.1785Z" fill="white"/>
<path d="M191.938 29.513C194.878 29.513 197.3 29.8699 199.206 30.5837C201.127 31.2974 202.552 32.3755 203.483 33.8179C204.414 35.2603 204.879 37.0819 204.879 39.2827C204.879 40.7697 204.598 42.0708 204.037 43.1861C203.476 44.3014 202.737 45.2456 201.821 46.0189C200.905 46.7921 199.915 47.4241 198.852 47.9148L208.38 62.1232H200.757L193.024 49.61H189.367V62.1232H182.498V29.513H191.938ZM191.45 35.1785H189.367V43.9891H191.583C193.858 43.9891 195.483 43.6099 196.458 42.8515C197.448 42.0783 197.943 40.9481 197.943 39.4611C197.943 37.9146 197.411 36.8142 196.347 36.16C195.299 35.5057 193.666 35.1785 191.45 35.1785Z" fill="white"/>
<path d="M241.864 45.7735C241.864 48.2865 241.554 50.5765 240.933 52.6435C240.313 54.6956 239.367 56.4651 238.097 57.9521C236.841 59.4391 235.245 60.5841 233.31 61.3871C231.375 62.1752 229.085 62.5693 226.441 62.5693C223.796 62.5693 221.506 62.1752 219.571 61.3871C217.636 60.5841 216.033 59.4391 214.762 57.9521C213.507 56.4651 212.569 54.6881 211.948 52.6212C211.328 50.5542 211.017 48.2568 211.017 45.7289C211.017 42.3534 211.564 39.4165 212.657 36.9183C213.765 34.4053 215.464 32.4573 217.754 31.0744C220.044 29.6915 222.954 29 226.485 29C230.001 29 232.889 29.6915 235.149 31.0744C237.424 32.4573 239.109 34.4053 240.202 36.9183C241.31 39.4314 241.864 42.3831 241.864 45.7735ZM218.219 45.7735C218.219 48.0486 218.5 50.0115 219.061 51.6621C219.638 53.2978 220.531 54.5617 221.743 55.4539C222.954 56.3313 224.52 56.7699 226.441 56.7699C228.391 56.7699 229.971 56.3313 231.183 55.4539C232.394 54.5617 233.273 53.2978 233.82 51.6621C234.381 50.0115 234.662 48.0486 234.662 45.7735C234.662 42.3534 234.027 39.6619 232.756 37.699C231.486 35.7362 229.395 34.7547 226.485 34.7547C224.55 34.7547 222.969 35.2008 221.743 36.093C220.531 36.9704 219.638 38.2343 219.061 39.8849C218.5 41.5206 218.219 43.4835 218.219 45.7735Z" fill="white"/>
<path d="M258.927 29.513C263.108 29.513 266.158 30.4201 268.079 32.2343C269.999 34.0335 270.96 36.5168 270.96 39.6842C270.96 41.1117 270.746 42.4798 270.317 43.7883C269.889 45.082 269.187 46.2345 268.212 47.2456C267.252 48.2568 265.966 49.0598 264.356 49.6546C262.746 50.2345 260.759 50.5245 258.395 50.5245H255.448V62.1232H248.578V29.513H258.927ZM258.572 35.1785H255.448V44.859H257.708C258.993 44.859 260.109 44.688 261.054 44.346C262 44.004 262.731 43.4686 263.248 42.74C263.765 42.0114 264.024 41.0745 264.024 39.9295C264.024 38.3236 263.581 37.134 262.694 36.3607C261.808 35.5726 260.434 35.1785 258.572 35.1785Z" fill="white"/>
<path d="M295.734 62.1232H277.076V29.513H295.734V35.1785H283.945V42.3385H294.915V48.004H283.945V56.4131H295.734V62.1232Z" fill="white"/>
<path d="M311.955 29.513C314.895 29.513 317.318 29.8699 319.224 30.5837C321.144 31.2974 322.57 32.3755 323.501 33.8179C324.431 35.2603 324.897 37.0819 324.897 39.2827C324.897 40.7697 324.616 42.0708 324.055 43.1861C323.493 44.3014 322.755 45.2456 321.839 46.0189C320.923 46.7921 319.933 47.4241 318.869 47.9148L328.398 62.1232H320.775L313.041 49.61H309.385V62.1232H302.515V29.513H311.955ZM311.468 35.1785H309.385V43.9891H311.601C313.876 43.9891 315.501 43.6099 316.476 42.8515C317.466 42.0783 317.961 40.9481 317.961 39.4611C317.961 37.9146 317.429 36.8142 316.365 36.16C315.316 35.5057 313.684 35.1785 311.468 35.1785Z" fill="white"/>
<path d="M344.974 62.1232H338.104V35.2678H329.307V29.513H353.771V35.2678H344.974V62.1232Z" fill="white"/>
<path d="M368.84 42.9407L375.599 29.513H383L372.252 49.4315V62.1232H365.427V49.6546L354.68 29.513H362.125L368.84 42.9407Z" fill="white"/>
<path d="M167.717 124.554L159.917 98.9699H159.717C159.747 99.5795 159.791 100.501 159.85 101.736C159.924 102.955 159.991 104.256 160.05 105.639C160.109 107.022 160.138 108.271 160.138 109.386V124.554H154V91.9437H163.351L171.019 116.881H171.152L179.284 91.9437H188.636V124.554H182.232V109.119C182.232 108.093 182.246 106.91 182.276 105.572C182.32 104.234 182.372 102.962 182.431 101.758C182.49 100.539 182.535 99.6241 182.564 99.0145H182.365L174.01 124.554H167.717Z" fill="white"/>
<path d="M216.646 124.554L214.297 116.792H202.486L200.137 124.554H192.735L204.17 91.8099H212.569L224.047 124.554H216.646ZM212.657 110.992L210.308 103.409C210.16 102.903 209.961 102.256 209.71 101.468C209.474 100.665 209.23 99.8546 208.979 99.0368C208.742 98.204 208.55 97.4828 208.402 96.8732C208.255 97.4828 208.048 98.2412 207.782 99.1483C207.531 100.041 207.287 100.888 207.051 101.691C206.814 102.494 206.644 103.067 206.541 103.409L204.214 110.992H212.657Z" fill="white"/>
<path d="M256.888 124.554H248.157L234.064 99.8844H233.864C233.923 100.91 233.975 101.944 234.019 102.985C234.064 104.026 234.108 105.067 234.152 106.108C234.197 107.134 234.241 108.167 234.285 109.208V124.554H228.147V91.9437H236.811L250.883 116.368H251.038C251.008 115.357 250.972 114.353 250.927 113.357C250.883 112.36 250.839 111.364 250.794 110.368C250.765 109.372 250.735 108.375 250.706 107.379V91.9437H256.888V124.554Z" fill="white"/>
<path d="M284.898 124.554L282.549 116.792H270.738L268.389 124.554H260.988L272.422 91.8099H280.821L292.3 124.554H284.898ZM280.91 110.992L278.561 103.409C278.413 102.903 278.213 102.256 277.962 101.468C277.726 100.665 277.482 99.8546 277.231 99.0368C276.995 98.204 276.803 97.4828 276.655 96.8732C276.507 97.4828 276.3 98.2412 276.034 99.1483C275.783 100.041 275.539 100.888 275.303 101.691C275.067 102.494 274.897 103.067 274.793 103.409L272.467 110.992H280.91Z" fill="white"/>
<path d="M308.698 106.241H321.551V123.149C319.852 123.714 318.086 124.167 316.255 124.509C314.423 124.836 312.347 125 310.028 125C306.807 125 304.074 124.361 301.828 123.082C299.583 121.803 297.877 119.914 296.71 117.416C295.542 114.918 294.959 111.847 294.959 108.204C294.959 104.784 295.609 101.825 296.909 99.3267C298.224 96.8286 300.137 94.8954 302.648 93.5274C305.175 92.1593 308.255 91.4753 311.889 91.4753C313.603 91.4753 315.294 91.6612 316.964 92.0329C318.633 92.4047 320.147 92.888 321.506 93.4828L319.224 99.0145C318.234 98.5089 317.104 98.0851 315.833 97.7431C314.563 97.4011 313.233 97.2301 311.845 97.2301C309.85 97.2301 308.114 97.691 306.637 98.613C305.175 99.5349 304.037 100.829 303.225 102.494C302.427 104.145 302.028 106.093 302.028 108.338C302.028 110.464 302.316 112.353 302.892 114.004C303.468 115.639 304.377 116.926 305.618 117.862C306.859 118.784 308.476 119.245 310.471 119.245C311.446 119.245 312.266 119.201 312.931 119.111C313.61 119.007 314.245 118.903 314.836 118.799V111.996H308.698V106.241Z" fill="white"/>
<path d="M347.943 124.554H329.285V91.9437H347.943V97.6092H336.154V104.769H347.123V110.435H336.154V118.844H347.943V124.554Z" fill="white"/>
<path d="M364.164 91.9437C367.104 91.9437 369.527 92.3006 371.433 93.0144C373.353 93.7281 374.779 94.8062 375.709 96.2486C376.64 97.691 377.105 99.5126 377.105 101.713C377.105 103.2 376.825 104.502 376.263 105.617C375.702 106.732 374.963 107.676 374.047 108.45C373.131 109.223 372.142 109.855 371.078 110.345L380.607 124.554H372.984L365.25 112.041H361.594V124.554H354.724V91.9437H364.164ZM363.677 97.6092H361.594V106.42H363.81C366.085 106.42 367.71 106.041 368.685 105.282C369.675 104.509 370.169 103.379 370.169 101.892C370.169 100.345 369.638 99.245 368.574 98.5907C367.525 97.9364 365.893 97.6092 363.677 97.6092Z" fill="white"/>
<path d="M0 79.6323L8.94814 70.666V48.9343H20.6262V58.2045L30.9393 47.5666V21.7317H54.9021L76.135 0L97.3679 22.9475C97.3679 22.9475 144.232 31.9137 131.947 81L75.68 21.7317L21.0812 79.7842L0 79.6323Z" fill="url(#paint0_linear_803_4764)"/>
<path d="M59 62.6672V88.2817H84.8925C89.2581 88.2817 93.6236 86.9176 97.086 84.341C99.9462 82.2191 102.656 79.0362 103.86 74.3377C104.161 73.4283 104.312 72.3674 104.312 71.3064C104.613 68.5783 104.914 62.6672 103.559 61L129 88.2817C129 88.2817 122.226 106.318 98.1398 111.926C95.4301 112.532 92.5699 112.835 89.8602 112.987L59.9032 114.048L58.8495 153H31.3011L31 92.5255L59 62.6672Z" fill="white"/>
<path d="M74.0812 29L26 81H33.0841L78 32.9532L74.0812 29Z" fill="url(#paint1_linear_803_4764)"/>
<path d="M79 57H70V66H79V57Z" fill="url(#paint2_linear_803_4764)"/>
<path d="M91 58H82V67H91V58Z" fill="url(#paint3_linear_803_4764)"/>
<path d="M79 70H70V79H79V70Z" fill="url(#paint4_linear_803_4764)"/>
<path d="M91 71H82V79H91V71Z" fill="url(#paint5_linear_803_4764)"/>
<defs>
<linearGradient id="paint0_linear_803_4764" x1="67" y1="0" x2="67" y2="81" gradientUnits="userSpaceOnUse">
<stop stop-color="white"/>
<stop offset="1" stop-color="white"/>
</linearGradient>
<linearGradient id="paint1_linear_803_4764" x1="57.9113" y1="61.6711" x2="47.312" y2="52.823" gradientUnits="userSpaceOnUse">
<stop stop-color="white"/>
<stop offset="1" stop-color="white"/>
</linearGradient>
<linearGradient id="paint2_linear_803_4764" x1="64.7234" y1="53.3379" x2="54.0734" y2="44.3695" gradientUnits="userSpaceOnUse">
<stop stop-color="white"/>
<stop offset="1" stop-color="#F06716"/>
</linearGradient>
<linearGradient id="paint3_linear_803_4764" x1="69.5347" y1="48.2591" x2="58.8846" y2="39.2905" gradientUnits="userSpaceOnUse">
<stop stop-color="#FFF8EF"/>
<stop offset="1" stop-color="white"/>
</linearGradient>
<linearGradient id="paint4_linear_803_4764" x1="58.3714" y1="60.9149" x2="47.7213" y2="51.9465" gradientUnits="userSpaceOnUse">
<stop stop-color="white"/>
<stop offset="1" stop-color="white"/>
</linearGradient>
<linearGradient id="paint5_linear_803_4764" x1="63.1827" y1="57.5209" x2="53.5899" y2="48.4329" gradientUnits="userSpaceOnUse">
<stop stop-color="white"/>
<stop offset="1" stop-color="#FFF6F1"/>
</linearGradient>
</defs>
</svg>
