<svg width="86" height="86" viewBox="0 0 86 86" fill="none" xmlns="http://www.w3.org/2000/svg">
<path d="M18.1053 44.3579L21.4434 41.0197V32.9289H25.8V36.3802L29.6474 32.4197V22.8013H38.5869L46.5079 14.7105L54.429 23.2539C54.429 23.2539 71.9119 26.5921 67.329 44.8671L46.3382 22.8013L25.9698 44.4145L18.1053 44.3579Z" fill="url(#paint0_linear_665_12600)"/>
<path d="M40.1711 37.9079V47.4697H49.9027C51.5435 47.4697 53.1842 46.9605 54.4856 45.9987C55.5606 45.2066 56.579 44.0184 57.0316 42.2645C57.1448 41.925 57.2013 41.5289 57.2013 41.1329C57.3145 40.1145 57.4277 37.9079 56.9185 37.2855L66.4803 47.4697C66.4803 47.4697 63.9342 54.2026 54.8816 56.296C53.8632 56.5224 52.7882 56.6355 51.7698 56.6921L40.5106 57.0882L40.1145 71.6289H29.7606L29.6474 49.0539L40.1711 37.9079Z" fill="white"/>
<path d="M46.0553 25.5171L28.0066 44.8671H30.6658L47.5263 26.9881L46.0553 25.5171Z" fill="url(#paint1_linear_665_12600)"/>
<path d="M47.7526 36.0974H44.4145V39.4355H47.7526V36.0974Z" fill="url(#paint2_linear_665_12600)"/>
<path d="M52.2224 36.2105H48.8842V39.5487H52.2224V36.2105Z" fill="url(#paint3_linear_665_12600)"/>
<path d="M47.7526 40.9066H44.4145V44.2447H47.7526V40.9066Z" fill="url(#paint4_linear_665_12600)"/>
<path d="M52.2224 41.0197H48.8842V44.3579H52.2224V41.0197Z" fill="url(#paint5_linear_665_12600)"/>
<path fill-rule="evenodd" clip-rule="evenodd" d="M43 81.4737C64.2484 81.4737 81.4737 64.2484 81.4737 43C81.4737 21.7516 64.2484 4.52632 43 4.52632C21.7516 4.52632 4.52632 21.7516 4.52632 43C4.52632 64.2484 21.7516 81.4737 43 81.4737ZM43 86C66.7482 86 86 66.7482 86 43C86 19.2518 66.7482 0 43 0C19.2518 0 0 19.2518 0 43C0 66.7482 19.2518 86 43 86Z" fill="white"/>
<defs>
<linearGradient id="paint0_linear_665_12600" x1="43.1" y1="14.7105" x2="43.1" y2="44.8671" gradientUnits="userSpaceOnUse">
<stop stop-color="white"/>
<stop offset="1" stop-color="white"/>
</linearGradient>
<linearGradient id="paint1_linear_665_12600" x1="39.9854" y1="37.6745" x2="36.0353" y2="34.348" gradientUnits="userSpaceOnUse">
<stop stop-color="white"/>
<stop offset="1" stop-color="white"/>
</linearGradient>
<linearGradient id="paint2_linear_665_12600" x1="42.4574" y1="34.7391" x2="38.5072" y2="31.4126" gradientUnits="userSpaceOnUse">
<stop stop-color="white"/>
<stop offset="1" stop-color="#F06716"/>
</linearGradient>
<linearGradient id="paint3_linear_665_12600" x1="44.2608" y1="32.5975" x2="40.3106" y2="29.271" gradientUnits="userSpaceOnUse">
<stop stop-color="#FFF8EF"/>
<stop offset="1" stop-color="white"/>
</linearGradient>
<linearGradient id="paint4_linear_665_12600" x1="40.1014" y1="37.5368" x2="36.1512" y2="34.2104" gradientUnits="userSpaceOnUse">
<stop stop-color="white"/>
<stop offset="1" stop-color="white"/>
</linearGradient>
<linearGradient id="paint5_linear_665_12600" x1="41.9048" y1="35.3953" x2="37.9546" y2="32.0688" gradientUnits="userSpaceOnUse">
<stop stop-color="white"/>
<stop offset="1" stop-color="#FFF6F1"/>
</linearGradient>
</defs>
</svg>
