<svg width="19" height="24" viewBox="0 0 19 24" fill="none" xmlns="http://www.w3.org/2000/svg">
<path d="M9.22733 9.472C11.8388 9.472 13.9633 7.34748 13.9633 4.736C13.9633 2.12453 11.8388 0 9.22733 0C6.61586 0 4.49133 2.12453 4.49133 4.736C4.49133 7.34748 6.61586 9.472 9.22733 9.472Z" fill="#0277FA"/>
<path d="M15.5825 11.7671C15.5805 11.7665 15.5766 11.765 15.5746 11.7645C14.958 11.6139 13.0697 11.3497 13.0697 11.3497C12.8565 11.2841 12.6287 11.397 12.552 11.6074L9.70966 19.4061C9.5457 19.8559 8.90941 19.8559 8.74545 19.4061L5.90311 11.6074C5.84121 11.4375 5.68089 11.331 5.50909 11.331C5.46836 11.331 3.52679 11.6032 2.8804 11.764C1.1141 12.2032 0 13.94 0 15.7501V22.2392C0 23.2116 0.788364 24 1.76081 24H16.6927C17.6651 24 18.4535 23.2116 18.4535 22.2392V15.7286C18.4534 13.9263 17.2957 12.3269 15.5825 11.7671Z" fill="#0277FA"/>
<path d="M10.2993 11.2011C10.1858 11.0774 10.02 11.0153 9.85224 11.0153H8.60092C8.43316 11.0153 8.26727 11.0775 8.15389 11.2011C7.9783 11.3924 7.95276 11.6689 8.07745 11.8849L8.74638 12.8933L8.43325 15.5349L9.04989 17.1753C9.11001 17.3403 9.34331 17.3403 9.40343 17.1753L10.0201 15.5349L9.70694 12.8933L10.3759 11.8849C10.5004 11.6689 10.4749 11.3924 10.2993 11.2011Z" fill="#0277FA"/>
</svg>
