<svg width="36" height="37" viewBox="0 0 36 37" fill="none" xmlns="http://www.w3.org/2000/svg">
<path d="M28.5077 7.51514C30.5829 7.51514 32.2653 5.83282 32.2653 3.75757C32.2653 1.68232 30.5829 0 28.5077 0C26.4324 0 24.7501 1.68232 24.7501 3.75757C24.7501 5.83282 26.4324 7.51514 28.5077 7.51514Z" fill="white"/>
<path d="M31.6555 8.96118L28.5077 13.3053L25.3971 9.25389L21.6732 13.8338L18.6858 11.1797C18.0585 10.621 17.0979 10.6779 16.5346 11.3052C15.9794 11.9336 16.0328 12.8953 16.6612 13.4552L20.8369 17.1651C21.1145 17.4137 21.4735 17.5507 21.844 17.5507C21.8812 17.5507 21.916 17.5496 21.9578 17.5438C22.369 17.5113 22.7546 17.3103 23.0183 16.9886L24.6712 14.9338V20.5928C24.6712 21.3013 24.6712 21.9646 25.0487 22.5302V34.8623C25.0487 35.7067 25.8153 36.3491 26.6574 36.3491C27.4995 36.3491 28.2684 35.7694 28.2684 34.7984H28.675C28.675 35.7694 29.3673 36.3491 30.207 36.3491C31.0468 36.3491 31.7426 35.7044 31.7426 34.8623V22.5291C32.1201 21.9599 32.1201 21.3002 32.1201 20.5916V15.6783C32.7682 17.0362 32.7926 18.8215 32.7857 21.0969C32.7845 21.9402 33.5604 22.6545 34.4048 22.6545H34.406C35.2446 22.6545 35.9265 21.9495 35.9299 21.105C35.9485 13.2972 33.4164 10.1715 31.6555 8.96118Z" fill="white"/>
<path d="M30.2593 7.90781L29.3672 8.29112C29.1837 7.97983 28.8515 7.77075 28.4612 7.77075C28.0698 7.77075 27.7364 7.98331 27.5575 8.29809L26.6655 7.92291C26.5365 7.86716 26.3542 7.88226 26.2403 7.95892C26.1207 8.03791 26.022 8.16916 26.022 8.31203V9.4271C26.022 9.56068 26.1126 9.68729 26.2194 9.76627C26.3298 9.84526 26.4819 9.86965 26.612 9.83248C26.9675 9.72329 27.417 9.59204 27.6667 9.51538C27.8607 9.73723 28.1499 9.87778 28.4624 9.87778C28.7922 9.87778 29.0826 9.72678 29.2789 9.49447C29.5263 9.56997 29.9596 9.70239 30.3104 9.80925C30.4381 9.84642 30.5311 9.82319 30.6402 9.7442C30.7494 9.66522 30.7727 9.53977 30.7727 9.40503V8.29577C30.7727 8.15406 30.7401 8.02513 30.6217 7.94614C30.5009 7.866 30.3917 7.85438 30.2593 7.90781Z" fill="white"/>
<path d="M13.4646 14.0475C13.3101 13.8942 13.1034 13.8071 12.8862 13.8071C12.6701 13.8071 12.4611 13.8942 12.3089 14.0475L9.7175 16.64C9.37137 16.985 8.81499 16.985 8.47001 16.64L4.44761 12.6234C4.32449 12.498 4.25364 12.3284 4.25364 12.153C4.25364 11.9776 4.32449 11.8081 4.44761 11.6838L5.2421 10.8928C5.32457 10.8115 5.35129 10.6872 5.30483 10.5803C5.25953 10.4711 5.15615 10.4003 5.04 10.4003H0.930482C0.67959 10.4003 0.441475 10.5013 0.267245 10.679C0.0930142 10.8568 -0.00339332 11.0972 9.12845e-05 11.3481L0.0616527 15.3821C0.0628142 15.4971 0.133668 15.6005 0.239368 15.6446C0.346229 15.6876 0.46819 15.6632 0.550659 15.5807L1.4857 14.6445C1.60766 14.5191 1.77956 14.4505 1.95263 14.4505C2.13035 14.4494 2.29993 14.5202 2.42538 14.6445L8.47118 20.6903C8.63611 20.8564 8.86145 20.9493 9.09376 20.9493C9.32723 20.9493 9.55257 20.8564 9.71867 20.6903L12.2648 18.1431C12.4297 17.977 12.655 17.8852 12.8873 17.8852C13.122 17.8852 13.345 17.9781 13.5111 18.1431L18.1839 22.8136C18.5034 23.133 19.0237 23.133 19.342 22.8136L20.2108 21.9471C20.3641 21.7926 20.4513 21.5847 20.4513 21.3687C20.4513 21.1515 20.3641 20.9447 20.2108 20.7902L13.4646 14.0475Z" fill="white"/>
</svg>
