<svg width="24" height="24" viewBox="0 0 24 24" fill="none" xmlns="http://www.w3.org/2000/svg">
<path d="M2.38033 0C6.45687 0 10.5428 0 14.6193 0C14.6381 0.00937136 14.6568 0.0281135 14.6755 0.0374849C15.8376 0.187427 17.0278 1.24639 16.9996 2.92386C16.9809 4.39517 16.9996 5.8571 16.9996 7.3284C16.9996 7.41274 16.9996 7.49709 16.9996 7.5908C15.9688 7.93754 14.9567 8.28428 13.9258 8.63102C13.6916 8.14371 13.2886 8.00314 12.7825 8.00314C9.9149 8.01251 7.04726 8.01251 4.17963 8.01251C4.08591 8.01251 3.9922 8.01251 3.89849 8.02188C3.28935 8.06874 2.85826 8.66851 3.01758 9.2589C3.14878 9.73684 3.51426 10.0086 4.07654 10.0086C6.13824 10.0086 8.19994 10.0086 10.2616 10.0086C10.3366 10.0086 10.4209 10.0086 10.5615 10.0086C9.88678 10.6084 9.55878 11.3112 9.49318 12.1172C9.3245 12.0797 9.17456 12.0235 9.02461 12.0235C7.3284 12.0141 5.63218 12.0141 3.93597 12.0235C3.39243 12.0235 2.97072 12.5014 2.98946 13.0449C2.99884 13.6072 3.44866 14.0196 4.0578 14.0196C5.44476 14.0196 6.82235 14.0289 8.20931 14.0196C8.63102 14.0196 9.05273 13.9914 9.49318 13.9727C9.49318 14.6662 9.50255 15.4065 9.49318 16.1562C9.46507 17.8431 9.9149 19.3987 10.7771 20.8325C10.8145 20.8888 10.8333 20.945 10.8708 21.02C8.07811 21.02 5.32293 21.0387 2.56775 21.0106C1.75245 21.0012 1.08708 20.5982 0.581025 19.9704C0.262399 19.5768 0.112456 19.1176 0 18.6396C0 13.2324 0 7.82508 0 2.41781C0.0187427 2.37095 0.0374854 2.31473 0.0468568 2.26787C0.196798 1.52753 0.571653 0.909022 1.21828 0.515425C1.56502 0.262398 1.98673 0.149942 2.38033 0ZM5.97892 5.99767C6.61618 5.99767 7.2628 5.99767 7.90005 5.99767C8.5373 5.99767 8.98713 5.57596 8.98713 4.99494C8.98713 4.42328 8.5373 3.9922 7.9188 3.9922C6.63492 3.9922 5.34167 3.9922 4.0578 3.9922C3.43929 3.9922 2.98946 4.42328 2.98946 4.99494C2.98946 5.56659 3.43929 5.9883 4.0578 5.99767C4.69505 5.99767 5.34167 5.99767 5.97892 5.99767Z" fill="white"/>
<path d="M17.5244 24C16.0531 23.344 14.7224 22.4538 13.6165 21.2823C12.5201 20.1203 11.761 18.7802 11.5548 17.1683C11.5174 16.8591 11.4986 16.5498 11.4986 16.2312C11.4892 14.966 11.4986 13.7009 11.4986 12.4358C11.4986 11.7985 11.7235 11.4893 12.3233 11.2925C13.9914 10.7302 15.6595 10.1585 17.3276 9.58689C17.6181 9.48381 17.8899 9.4838 18.171 9.57752C19.8672 10.1585 21.5634 10.7396 23.2597 11.3112C23.6533 11.4424 23.8782 11.7142 24 12.089C24 13.6822 24 15.2753 24 16.8684C23.9906 16.9059 23.9625 16.9434 23.9625 16.9715C23.8126 18.4147 23.2222 19.6705 22.3132 20.7763C21.123 22.2101 19.6423 23.2503 17.9555 23.9907C17.8055 24 17.665 24 17.5244 24ZM17.3745 16.9903C16.9715 16.5779 16.5966 16.1937 16.2124 15.8188C15.7907 15.4065 15.1816 15.4065 14.788 15.8001C14.3944 16.2031 14.3944 16.8122 14.8067 17.2245C15.4627 17.8899 16.1187 18.5459 16.7747 19.1925C17.2339 19.6424 17.8992 19.6049 18.2928 19.0894C19.2956 17.7681 20.2889 16.428 21.2917 15.0972C21.451 14.8911 21.526 14.6568 21.4885 14.3944C21.4416 13.9633 21.1605 13.6353 20.7481 13.5229C20.3171 13.4104 19.9609 13.551 19.6892 13.8977C19.1082 14.6568 18.5365 15.4346 17.9555 16.2031C17.7681 16.4655 17.59 16.7091 17.3745 16.9903Z" fill="white"/>
</svg>
