<svg width="18" height="18" viewBox="0 0 18 18" fill="none" xmlns="http://www.w3.org/2000/svg">
<g clip-path="url(#clip0_692_1145)">
<path d="M11.71 15.18L9.70998 17.207C9.52143 17.3948 9.26613 17.5003 8.99998 17.5003C8.73383 17.5003 8.47853 17.3948 8.28998 17.207L6.28998 15.18C6.15206 15.0368 6.05877 14.8565 6.02148 14.6612C5.98419 14.4659 6.00452 14.264 6.07998 14.08C6.15147 13.8939 6.27763 13.7339 6.44185 13.6209C6.60607 13.5079 6.80065 13.4473 6.99998 13.447H7.99998V7.87399C7.99998 7.60878 8.10534 7.35442 8.29287 7.16689C8.48041 6.97935 8.73476 6.87399 8.99998 6.87399C9.2652 6.87399 9.51955 6.97935 9.70709 7.16689C9.89462 7.35442 9.99998 7.60878 9.99998 7.87399V13.447H11C11.1987 13.4469 11.3929 13.5068 11.557 13.6188C11.7212 13.7309 11.8477 13.8899 11.92 14.075C11.9964 14.2596 12.0172 14.4625 11.9799 14.6588C11.9426 14.8551 11.8488 15.0363 11.71 15.18Z" fill="#0277FA"/>
<path d="M14.29 4.56299C13.9791 3.39749 13.292 2.36729 12.3354 1.63243C11.3788 0.897577 10.2063 0.499207 9.00003 0.499207C7.79377 0.499207 6.62126 0.897577 5.66467 1.63243C4.70808 2.36729 4.02095 3.39749 3.71003 4.56299C2.66617 4.64328 1.69378 5.12411 0.996288 5.90488C0.298795 6.68565 -0.0697719 7.70589 -0.0323125 8.75217C0.00514683 9.79845 0.44573 10.7897 1.19727 11.5186C1.94882 12.2475 2.9531 12.6576 4.00003 12.663H4.59303C4.94175 12.1703 5.43266 11.7959 6.00003 11.59V7.87399C6.00003 7.07834 6.3161 6.31528 6.87871 5.75267C7.44132 5.19006 8.20438 4.87399 9.00003 4.87399C9.79568 4.87399 10.5587 5.19006 11.1214 5.75267C11.684 6.31528 12 7.07834 12 7.87399V11.592C12.5672 11.7967 13.0582 12.1701 13.407 12.662H14C15.0411 12.6481 16.037 12.2343 16.7815 11.5064C17.5259 10.7784 17.9619 9.79206 17.9992 8.75153C18.0364 7.711 17.6721 6.69599 16.9817 5.91666C16.2912 5.13732 15.3275 4.65337 14.29 4.56499V4.56299Z" fill="#0277FA"/>
</g>
<defs>
<clipPath id="clip0_692_1145">
<rect width="18" height="18" fill="white"/>
</clipPath>
</defs>
</svg>
