<svg width="38" height="30" viewBox="0 0 38 30" fill="none" xmlns="http://www.w3.org/2000/svg">
<path d="M18.6 28.0107C18.4893 28.0107 18.3785 27.9 18.3785 27.7893V25.6857C18.3785 25.575 18.4893 25.4643 18.6 25.4643C18.7107 25.4643 18.8214 25.575 18.8214 25.6857V27.7893C18.8214 27.9 18.7107 28.0107 18.6 28.0107Z" fill="#002541"/>
<path d="M18.6 29.6715C18.0464 29.6715 17.5482 29.2286 17.5482 28.6197C17.5482 28.0661 17.9911 27.5679 18.6 27.5679C19.1536 27.5679 19.6518 28.0107 19.6518 28.6197C19.6518 29.1732 19.1536 29.6715 18.6 29.6715ZM18.6 28.0661C18.3232 28.0661 18.0464 28.2875 18.0464 28.6197C18.0464 28.9518 18.2679 29.1732 18.6 29.1732C18.8768 29.1732 19.1536 28.9518 19.1536 28.6197C19.1536 28.2875 18.8768 28.0661 18.6 28.0661Z" fill="#002541"/>
<path d="M35.3731 0H1.82672V25.6303H35.3731V0Z" fill="#96E0F4"/>
<path d="M37.2 0H0V2.26965H37.2V0Z" fill="#004592"/>
<path d="M35.3732 0H18.6V25.6303H35.3732V0Z" fill="#4FC2D9"/>
<path d="M16.3304 11.625C16.3304 15.0572 13.5625 17.7697 10.1857 17.7697C6.75358 17.7697 4.04108 15.0018 4.04108 11.625C4.04108 8.19288 6.80894 5.48038 10.1857 5.48038C11.9018 5.48038 13.4518 6.14467 14.5589 7.30717C15.3339 8.08217 15.8875 9.07859 16.1643 10.1304C16.275 10.5732 16.3304 11.1268 16.3304 11.625Z" fill="#FDC00E"/>
<path d="M14.5036 7.25181L10.1304 11.625V5.48038C11.8464 5.48038 13.3965 6.14467 14.5036 7.25181Z" fill="#F99C1D"/>
<path d="M16.1643 10.1304L10.1857 11.625L14.5589 7.2518C15.2786 8.0268 15.8875 9.02322 16.1643 10.1304Z" fill="#FCE5AC"/>
<path d="M32.3286 17.7143H21.3679C21.2572 17.7143 21.1465 17.6036 21.1465 17.4929V6.69823C21.1465 6.58752 21.2572 6.47681 21.3679 6.47681C21.4786 6.47681 21.5893 6.58752 21.5893 6.69823V17.2161H32.2733C32.384 17.2161 32.4947 17.3268 32.4947 17.4375C32.5501 17.6036 32.4393 17.7143 32.3286 17.7143Z" fill="#002541"/>
<path d="M22.8072 14.0607C22.7518 14.0607 22.6411 14.0054 22.5857 13.95C22.5304 13.8393 22.5304 13.6732 22.6411 13.6179L26.2393 11.4036C26.35 11.3482 26.5161 11.3482 26.5715 11.4589L27.2358 12.4L30.7232 10.0196C30.834 9.96428 31 9.96428 31.0554 10.075C31.1107 10.1857 31.1107 10.3518 31 10.4071L27.3465 12.9536C27.2357 13.0089 27.0697 13.0089 27.0143 12.8982L26.35 11.9571L22.9179 14.0607C22.8625 14.0607 22.8072 14.0607 22.8072 14.0607Z" fill="#1490BD"/>
<path d="M29.1178 9.85358L32.3839 9.13394C32.4946 9.13394 32.55 9.24465 32.4946 9.30001L30.5571 11.9018C30.5018 11.9572 30.4464 11.9572 30.3911 11.9018L29.0625 10.0197C29.0071 9.9643 29.0071 9.85358 29.1178 9.85358Z" fill="#002541"/>
<path d="M37.2 0H18.6V2.26965H37.2V0Z" fill="#002541"/>
<path d="M14.5036 20.0393H6.53217V20.8143H14.5036V20.0393Z" fill="#1490BD"/>
<path d="M30.834 20.0393H22.8625V20.8143H30.834V20.0393Z" fill="#1490BD"/>
<path d="M16.1643 21.8661H4.92682V22.6411H16.1643V21.8661Z" fill="#1490BD"/>
<path d="M32.6054 21.8661H21.3679V22.6411H32.6054V21.8661Z" fill="#1490BD"/>
</svg>
