<svg width="270" height="90" viewBox="0 0 270 90" fill="none" xmlns="http://www.w3.org/2000/svg">
<circle cx="5" cy="5" r="5" fill="white" fill-opacity="0.6"/>
<circle cx="5" cy="25" r="5" fill="white" fill-opacity="0.6"/>
<circle cx="5" cy="45" r="5" fill="white" fill-opacity="0.6"/>
<circle cx="5" cy="65" r="5" fill="white" fill-opacity="0.6"/>
<circle cx="5" cy="85" r="5" fill="white" fill-opacity="0.6"/>
<circle cx="25" cy="5" r="5" fill="white" fill-opacity="0.6"/>
<circle cx="25" cy="25" r="5" fill="white" fill-opacity="0.6"/>
<circle cx="25" cy="45" r="5" fill="white" fill-opacity="0.6"/>
<circle cx="25" cy="65" r="5" fill="white" fill-opacity="0.6"/>
<circle cx="25" cy="85" r="5" fill="white" fill-opacity="0.6"/>
<circle cx="45" cy="5" r="5" fill="white" fill-opacity="0.6"/>
<circle cx="45" cy="25" r="5" fill="white" fill-opacity="0.6"/>
<circle cx="45" cy="45" r="5" fill="white" fill-opacity="0.6"/>
<circle cx="45" cy="65" r="5" fill="white" fill-opacity="0.6"/>
<circle cx="45" cy="85" r="5" fill="white" fill-opacity="0.6"/>
<circle cx="65" cy="5" r="5" fill="white" fill-opacity="0.6"/>
<circle cx="65" cy="25" r="5" fill="white" fill-opacity="0.6"/>
<circle cx="65" cy="45" r="5" fill="white" fill-opacity="0.6"/>
<circle cx="65" cy="65" r="5" fill="white" fill-opacity="0.6"/>
<circle cx="65" cy="85" r="5" fill="white" fill-opacity="0.6"/>
<circle cx="85" cy="5" r="5" fill="white" fill-opacity="0.6"/>
<circle cx="85" cy="25" r="5" fill="white" fill-opacity="0.6"/>
<circle cx="85" cy="45" r="5" fill="white" fill-opacity="0.6"/>
<circle cx="85" cy="65" r="5" fill="white" fill-opacity="0.6"/>
<circle cx="85" cy="85" r="5" fill="white" fill-opacity="0.6"/>
<circle cx="105" cy="5" r="5" fill="white" fill-opacity="0.6"/>
<circle cx="105" cy="25" r="5" fill="white" fill-opacity="0.6"/>
<circle cx="105" cy="45" r="5" fill="white" fill-opacity="0.6"/>
<circle cx="105" cy="65" r="5" fill="white" fill-opacity="0.6"/>
<circle cx="105" cy="85" r="5" fill="white" fill-opacity="0.6"/>
<circle cx="125" cy="5" r="5" fill="white" fill-opacity="0.6"/>
<circle cx="125" cy="25" r="5" fill="white" fill-opacity="0.6"/>
<circle cx="125" cy="45" r="5" fill="white" fill-opacity="0.6"/>
<circle cx="125" cy="65" r="5" fill="white" fill-opacity="0.6"/>
<circle cx="125" cy="85" r="5" fill="white" fill-opacity="0.6"/>
<circle cx="145" cy="5" r="5" fill="white" fill-opacity="0.6"/>
<circle cx="145" cy="25" r="5" fill="white" fill-opacity="0.6"/>
<circle cx="145" cy="45" r="5" fill="white" fill-opacity="0.6"/>
<circle cx="145" cy="65" r="5" fill="white" fill-opacity="0.6"/>
<circle cx="145" cy="85" r="5" fill="white" fill-opacity="0.6"/>
<circle cx="165" cy="5" r="5" fill="white" fill-opacity="0.6"/>
<circle cx="165" cy="25" r="5" fill="white" fill-opacity="0.6"/>
<circle cx="165" cy="45" r="5" fill="white" fill-opacity="0.6"/>
<circle cx="165" cy="65" r="5" fill="white" fill-opacity="0.6"/>
<circle cx="165" cy="85" r="5" fill="white" fill-opacity="0.6"/>
<circle cx="185" cy="5" r="5" fill="white" fill-opacity="0.6"/>
<circle cx="185" cy="25" r="5" fill="white" fill-opacity="0.6"/>
<circle cx="185" cy="45" r="5" fill="white" fill-opacity="0.6"/>
<circle cx="185" cy="65" r="5" fill="white" fill-opacity="0.6"/>
<circle cx="185" cy="85" r="5" fill="white" fill-opacity="0.6"/>
<circle cx="205" cy="5" r="5" fill="white" fill-opacity="0.6"/>
<circle cx="205" cy="25" r="5" fill="white" fill-opacity="0.6"/>
<circle cx="205" cy="45" r="5" fill="white" fill-opacity="0.6"/>
<circle cx="205" cy="65" r="5" fill="white" fill-opacity="0.6"/>
<circle cx="205" cy="85" r="5" fill="white" fill-opacity="0.6"/>
<circle cx="225" cy="5" r="5" fill="white" fill-opacity="0.6"/>
<circle cx="225" cy="25" r="5" fill="white" fill-opacity="0.6"/>
<circle cx="225" cy="45" r="5" fill="white" fill-opacity="0.6"/>
<circle cx="225" cy="65" r="5" fill="white" fill-opacity="0.6"/>
<circle cx="225" cy="85" r="5" fill="white" fill-opacity="0.6"/>
<circle cx="245" cy="5" r="5" fill="white" fill-opacity="0.6"/>
<circle cx="245" cy="25" r="5" fill="white" fill-opacity="0.6"/>
<circle cx="245" cy="45" r="5" fill="white" fill-opacity="0.6"/>
<circle cx="245" cy="65" r="5" fill="white" fill-opacity="0.6"/>
<circle cx="245" cy="85" r="5" fill="white" fill-opacity="0.6"/>
<circle cx="265" cy="5" r="5" fill="white" fill-opacity="0.6"/>
<circle cx="265" cy="25" r="5" fill="white" fill-opacity="0.6"/>
<circle cx="265" cy="45" r="5" fill="white" fill-opacity="0.6"/>
<circle cx="265" cy="65" r="5" fill="white" fill-opacity="0.6"/>
<circle cx="265" cy="85" r="5" fill="white" fill-opacity="0.6"/>
</svg>
