<svg width="729" height="391" viewBox="0 0 729 391" fill="none" xmlns="http://www.w3.org/2000/svg">
<path d="M56.0789 355.653C56.0789 355.653 -21.9937 274.05 42.8694 185.706C100.422 107.315 167.517 112.667 216.756 144.484C237.732 158.035 316.055 146.92 384.54 80.4175C457.465 9.61007 652.51 44.3875 618.667 190.944C599.832 272.547 683.985 274.87 639.756 355.835L56.0789 355.653Z" fill="#0561C7"/>
<path d="M728.214 356.541H0.826804C0.462404 356.541 0.143555 356.245 0.143555 355.858V355.288C0.143555 354.924 0.439629 354.605 0.826804 354.605H728.214C728.579 354.605 728.897 354.901 728.897 355.288V355.858C728.897 356.245 728.601 356.541 728.214 356.541Z" fill="#2E3552"/>
<path d="M686.582 6.12549L578.81 41.7683L600.447 59.8061L507.206 157.42L425.466 87.2272L99.2147 354.56L102.084 354.605H183.368L424.669 156.873L510.85 230.869L641.533 94.0369L664.9 113.51L686.582 6.12549Z" fill="white"/>
<path d="M304.44 289.56L279.684 287.442C279.684 287.442 281.118 272.183 276.768 251.822C273.557 236.791 267.18 218.981 254.745 202.469C233.542 174.342 170.569 158.581 170.569 158.581V154.937L172.823 154.687C172.823 154.687 171.844 154.004 170.569 153.617V145.008C172.436 144.985 175.101 145.099 177.72 145.714C176.24 145.349 173.097 144.62 170.569 144.438V139.906C261.783 142.343 291.549 197.436 300.864 240.093C306.831 267.378 304.44 289.56 304.44 289.56Z" fill="#82B378"/>
<path d="M412.781 281.543L304.44 289.56C303.871 272.866 299.521 255.625 295.307 242.53C291.094 229.457 287.017 220.529 287.017 220.529C254.608 149.517 170.569 139.883 170.569 139.883L263.855 101.689C308.927 105.083 340.538 126.719 362.63 153.889C405.948 207.115 412.781 281.543 412.781 281.543Z" fill="#A8D29F"/>
<path opacity="0.5" d="M412.781 281.543L304.44 289.56L279.684 287.442C279.684 287.442 281.119 272.183 276.768 251.822C281.938 248.725 288.065 245.604 295.33 242.553C297.243 241.755 299.088 240.936 300.887 240.093C369.873 208.253 363.45 158.65 362.653 153.912C405.948 207.115 412.781 281.543 412.781 281.543Z" fill="#82B378"/>
<path d="M404.263 289.902L307.72 288.034L308.061 286.167C308.107 285.893 313.072 257.584 301.502 225.38C294.715 206.522 283.669 190.033 268.638 176.346C249.826 159.219 224.659 146.465 193.89 138.448L189.153 137.218L264.516 107.224H264.812C265.632 107.201 285.036 106.905 309.974 118.702C324.596 125.626 338.056 135.282 349.99 147.421C364.862 162.567 377.388 181.652 387.204 204.108C387.979 205.839 406.313 247.016 405.356 271.727V271.75L404.263 289.902ZM311.5 284.891L401.234 286.622L402.099 271.591C402.486 261.706 399.526 247.153 393.536 229.48C388.981 216.065 384.266 205.498 384.221 205.406C374.587 183.338 362.311 164.616 347.735 149.767C336.097 137.901 322.956 128.45 308.722 121.686C293.258 114.352 279.775 111.779 271.963 110.89C267.863 110.435 263.718 110.981 259.892 112.507L207.669 133.301C204.936 134.394 205.073 138.289 207.874 139.177C233.268 147.353 254.426 159.059 270.87 174.045C286.288 188.098 297.63 205.065 304.577 224.446C310.749 241.687 312.229 257.675 312.389 268.06C312.48 276.123 311.865 282.044 311.5 284.891Z" fill="#82B378"/>
<path d="M352.313 178.965C352.313 194.862 342.998 204.473 327.078 204.473C311.181 204.473 294.692 194.862 294.692 178.965C294.692 163.068 303.506 153.548 319.403 153.548C335.3 153.548 352.313 163.045 352.313 178.965Z" fill="#82B378"/>
<path d="M496.911 341.397V350.894C496.911 351.645 496.684 352.351 496.274 352.943C495.864 353.558 495.249 354.037 494.566 354.31C494.361 354.401 494.133 354.447 493.905 354.492C493.7 354.538 493.472 354.56 493.267 354.56H341.882C339.924 354.56 338.329 353.012 338.215 351.076C338.215 351.008 338.215 350.962 338.215 350.894V341.397C338.215 341.328 338.215 341.283 338.215 341.214C338.307 339.278 339.924 337.73 341.882 337.73H493.267C493.495 337.73 493.7 337.753 493.905 337.798C494.133 337.844 494.361 337.912 494.566 337.98C495.272 338.254 495.864 338.732 496.274 339.347C496.684 339.939 496.911 340.645 496.911 341.397Z" fill="#FFB93E"/>
<path d="M422.574 354.56H341.472C339.741 354.56 338.307 353.012 338.215 351.076C338.215 351.008 338.215 350.962 338.215 350.894V341.397C338.215 341.328 338.215 341.283 338.215 341.214C338.307 339.278 339.741 337.73 341.472 337.73H412.621C413.76 342.695 416.402 349.55 422.574 354.56Z" fill="#FFA412"/>
<path d="M478.509 337.73H476.778V354.561H478.509V337.73Z" fill="#FFA412"/>
<path d="M472.679 337.73H470.948V354.561H472.679V337.73Z" fill="#FFA412"/>
<path d="M465.71 337.73H463.979V354.561H465.71V337.73Z" fill="#FFA412"/>
<path d="M455.006 337.73H453.275V354.561H455.006V337.73Z" fill="#FFA412"/>
<path d="M443.686 337.73H441.956V354.561H443.686V337.73Z" fill="#FFA412"/>
<path d="M426.332 337.73H424.601V354.561H426.332V337.73Z" fill="#FFA412"/>
<path d="M410.071 337.73H408.34V354.561H410.071V337.73Z" fill="#FFA412"/>
<path d="M395.563 337.73H393.832V354.561H395.563V337.73Z" fill="#FFA412"/>
<path d="M484.044 337.73H482.313V354.561H484.044V337.73Z" fill="#FFA412"/>
<path d="M487.71 337.73H485.979V354.561H487.71V337.73Z" fill="#FFA412"/>
<path d="M491.263 337.73H489.532V354.561H491.263V337.73Z" fill="#FFA412"/>
<path d="M493.905 337.798V354.515C493.7 354.561 493.472 354.584 493.267 354.584H492.197V337.753H493.267C493.472 337.73 493.7 337.753 493.905 337.798Z" fill="#FFA412"/>
<path d="M496.297 339.347V352.944C495.887 353.559 495.272 354.037 494.589 354.31V337.981C495.272 338.254 495.887 338.732 496.297 339.347Z" fill="#FFA412"/>
<path d="M480.741 324.565V334.062C480.741 334.814 480.513 335.52 480.104 336.112C479.694 336.727 479.079 337.205 478.395 337.479C478.19 337.57 477.963 337.615 477.735 337.661C477.53 337.706 477.302 337.729 477.097 337.729H325.712C323.753 337.729 322.159 336.18 322.045 334.245C322.045 334.176 322.045 334.108 322.045 334.062V324.565C322.045 324.497 322.045 324.429 322.045 324.383C322.136 322.447 323.753 320.898 325.712 320.898H477.097C477.188 320.898 477.302 320.898 477.393 320.921C477.439 320.921 477.484 320.921 477.507 320.944C477.553 320.944 477.598 320.944 477.644 320.967C477.667 320.967 477.712 320.967 477.735 320.99C477.963 321.035 478.19 321.103 478.395 321.172C478.418 321.195 478.464 321.194 478.486 321.217C478.509 321.24 478.555 321.24 478.578 321.263C478.646 321.286 478.692 321.331 478.76 321.354C478.783 321.377 478.828 321.399 478.874 321.422C478.896 321.445 478.942 321.468 478.965 321.468C479.033 321.513 479.079 321.536 479.147 321.582C479.215 321.627 479.284 321.673 479.329 321.718C479.375 321.764 479.42 321.787 479.466 321.832C479.489 321.855 479.534 321.878 479.557 321.923C479.648 322.014 479.739 322.106 479.83 322.197C479.853 322.219 479.876 322.242 479.899 322.288C479.921 322.31 479.944 322.356 479.967 322.379C480.012 322.447 480.058 322.493 480.104 322.561C480.513 323.108 480.741 323.814 480.741 324.565Z" fill="#FFB93E"/>
<path d="M406.404 337.729H325.302C323.548 337.729 322.136 336.18 322.045 334.245C322.045 334.176 322.045 334.108 322.045 334.062V324.565C322.045 324.497 322.045 324.429 322.045 324.383C322.136 322.447 323.571 320.898 325.302 320.898H396.451C396.474 321.035 396.519 321.172 396.542 321.308C397.726 326.228 400.391 332.855 406.404 337.729Z" fill="#FFA412"/>
<path d="M462.316 320.898H460.585V337.729H462.316V320.898Z" fill="#FFA412"/>
<path d="M456.509 320.898H454.778V337.729H456.509V320.898Z" fill="#FFA412"/>
<path d="M449.517 320.898H447.786V337.729H449.517V320.898Z" fill="#FFA412"/>
<path d="M438.812 320.898H437.082V337.729H438.812V320.898Z" fill="#FFA412"/>
<path d="M427.493 320.898H425.762V337.729H427.493V320.898Z" fill="#FFA412"/>
<path d="M410.139 320.898H408.408V337.729H410.139V320.898Z" fill="#FFA412"/>
<path d="M393.877 320.898H392.147V337.729H393.877V320.898Z" fill="#FFA412"/>
<path d="M379.37 320.898H377.639V337.729H379.37V320.898Z" fill="#FFA412"/>
<path d="M467.873 320.898H466.142V337.729H467.873V320.898Z" fill="#FFA412"/>
<path d="M471.54 320.898H469.809V337.729H471.54V320.898Z" fill="#FFA412"/>
<path d="M475.07 320.898H473.339V337.729H475.07V320.898Z" fill="#FFA412"/>
<path d="M477.712 320.967V337.684C477.507 337.729 477.279 337.752 477.074 337.752H476.004V320.922H477.074C477.302 320.899 477.507 320.922 477.712 320.967Z" fill="#FFA412"/>
<path d="M480.104 322.515V336.112C479.694 336.727 479.079 337.205 478.395 337.479V321.149C479.101 321.422 479.694 321.901 480.104 322.515Z" fill="#FFA412"/>
<path d="M488.553 308.144V317.642C488.553 318.393 488.325 319.099 487.915 319.691C487.505 320.306 486.89 320.785 486.207 321.058C486.002 321.149 485.774 321.217 485.547 321.24C485.342 321.286 485.114 321.308 484.909 321.308H333.524C332.909 321.308 332.339 321.149 331.838 320.898C330.768 320.329 329.994 319.259 329.88 318.006C329.88 317.96 329.88 317.892 329.857 317.847C329.857 317.778 329.857 317.71 329.857 317.664V308.167C329.857 308.099 329.857 308.031 329.857 307.985C329.948 306.049 331.565 304.5 333.524 304.5H484.909C485.137 304.5 485.342 304.523 485.547 304.569C485.774 304.614 486.002 304.683 486.207 304.751C486.913 305.024 487.505 305.503 487.915 306.117C488.325 306.687 488.553 307.393 488.553 308.144Z" fill="#FFB93E"/>
<path d="M414.216 321.331H333.114C332.567 321.331 332.066 321.172 331.611 320.921C330.654 320.352 329.971 319.281 329.857 318.029C329.857 317.983 329.857 317.915 329.834 317.869C329.834 317.801 329.834 317.733 329.834 317.687V308.19C329.834 308.122 329.834 308.053 329.834 308.008C329.925 306.072 331.36 304.523 333.091 304.523H404.24C405.356 309.351 407.884 315.956 413.692 320.944C413.874 321.035 414.056 321.172 414.216 321.331Z" fill="#FFA412"/>
<path d="M470.151 304.5H468.42V321.331H470.151V304.5Z" fill="#FFA412"/>
<path d="M464.32 304.5H462.59V321.331H464.32V304.5Z" fill="#FFA412"/>
<path d="M457.329 304.5H455.598V321.331H457.329V304.5Z" fill="#FFA412"/>
<path d="M446.624 304.5H444.893V321.331H446.624V304.5Z" fill="#FFA412"/>
<path d="M435.305 304.5H433.574V321.331H435.305V304.5Z" fill="#FFA412"/>
<path d="M417.951 304.5H416.22V321.331H417.951V304.5Z" fill="#FFA412"/>
<path d="M401.712 304.5H399.981V321.331H401.712V304.5Z" fill="#FFA412"/>
<path d="M387.204 304.5H385.474V321.331H387.204V304.5Z" fill="#FFA412"/>
<path d="M475.685 304.5H473.954V321.331H475.685V304.5Z" fill="#FFA412"/>
<path d="M479.352 304.5H477.621V321.331H479.352V304.5Z" fill="#FFA412"/>
<path d="M482.882 304.5H481.151V321.331H482.882V304.5Z" fill="#FFA412"/>
<path d="M485.547 304.546V321.263C485.342 321.308 485.114 321.331 484.909 321.331H483.839V304.5H484.909C485.114 304.5 485.319 304.5 485.547 304.546Z" fill="#FFA412"/>
<path d="M487.938 306.117V319.714C487.528 320.329 486.913 320.807 486.23 321.081V304.751C486.913 305.002 487.505 305.503 487.938 306.117Z" fill="#FFA412"/>
<path d="M492.174 291.314V300.811C492.174 301.562 491.946 302.268 491.537 302.861C491.127 303.476 490.512 303.954 489.828 304.227C489.623 304.318 489.396 304.387 489.168 304.409C488.963 304.455 488.735 304.478 488.53 304.478H337.145C335.186 304.478 333.592 302.929 333.478 300.993C333.478 300.925 333.478 300.856 333.478 300.811V291.314C333.478 291.245 333.478 291.177 333.478 291.131C333.569 289.355 334.959 287.897 336.712 287.692C336.849 287.67 337.008 287.67 337.145 287.67H488.53C488.758 287.67 488.963 287.692 489.168 287.738C489.396 287.784 489.623 287.852 489.828 287.92C490.534 288.194 491.127 288.672 491.537 289.287C491.946 289.856 492.174 290.562 492.174 291.314Z" fill="#FFB93E"/>
<path d="M417.837 304.501H336.735C335.004 304.501 333.547 302.952 333.478 301.016C333.478 300.948 333.478 300.88 333.478 300.834V291.337C333.478 291.269 333.478 291.2 333.478 291.155C333.569 289.378 334.799 287.921 336.348 287.716C336.485 287.693 336.598 287.693 336.735 287.693H407.884V287.716C409.023 292.635 411.688 299.468 417.837 304.501Z" fill="#FFA412"/>
<path d="M473.772 287.67H472.041V304.501H473.772V287.67Z" fill="#FFA412"/>
<path d="M467.942 287.67H466.211V304.501H467.942V287.67Z" fill="#FFA412"/>
<path d="M460.973 287.67H459.242V304.501H460.973V287.67Z" fill="#FFA412"/>
<path d="M450.268 287.67H448.538V304.501H450.268V287.67Z" fill="#FFA412"/>
<path d="M438.949 287.67H437.218V304.501H438.949V287.67Z" fill="#FFA412"/>
<path d="M421.572 287.67H419.841V304.501H421.572V287.67Z" fill="#FFA412"/>
<path d="M405.333 287.67H403.602V304.501H405.333V287.67Z" fill="#FFA412"/>
<path d="M390.826 287.67H389.095V304.501H390.826V287.67Z" fill="#FFA412"/>
<path d="M479.307 287.67H477.576V304.501H479.307V287.67Z" fill="#FFA412"/>
<path d="M482.973 287.67H481.242V304.501H482.973V287.67Z" fill="#FFA412"/>
<path d="M486.526 287.67H484.795V304.501H486.526V287.67Z" fill="#FFA412"/>
<path d="M489.168 287.716V304.433C488.963 304.478 488.735 304.501 488.53 304.501H487.46V287.67H488.53C488.735 287.67 488.963 287.67 489.168 287.716Z" fill="#FFA412"/>
<path d="M491.559 289.287V302.884C491.149 303.499 490.535 303.977 489.851 304.25V287.921C490.535 288.171 491.127 288.672 491.559 289.287Z" fill="#FFA412"/>
<path d="M481.06 274.528V284.026C481.06 284.777 480.832 285.483 480.422 286.075C480.012 286.69 479.398 287.168 478.714 287.442C478.509 287.533 478.282 287.601 478.054 287.624C477.986 287.647 477.917 287.647 477.849 287.647C477.803 287.647 477.781 287.647 477.735 287.67C477.689 287.67 477.667 287.67 477.621 287.67C477.553 287.67 477.484 287.67 477.416 287.67H326.008C324.049 287.67 322.455 286.121 322.341 284.185C322.341 284.117 322.341 284.048 322.341 284.003V274.528C322.341 274.46 322.341 274.392 322.341 274.346C322.341 274.301 322.341 274.232 322.341 274.187C322.478 272.638 323.617 271.363 325.097 270.975C325.143 270.975 325.165 270.953 325.211 270.953C325.461 270.907 325.735 270.862 326.008 270.862H477.393C477.507 270.862 477.621 270.862 477.712 270.884C477.758 270.884 477.803 270.884 477.849 270.907C477.917 270.907 477.963 270.93 478.008 270.93C478.236 270.975 478.464 271.044 478.669 271.112C479.375 271.385 479.967 271.864 480.377 272.479C480.832 273.071 481.06 273.754 481.06 274.528Z" fill="#FFB93E"/>
<path d="M406.723 287.693H325.621C323.89 287.693 322.432 286.144 322.364 284.208C322.364 284.14 322.364 284.071 322.364 284.026V274.529C322.364 274.46 322.364 274.392 322.364 274.346C322.364 274.301 322.364 274.233 322.364 274.187C322.501 272.593 323.548 271.295 324.892 270.953C324.938 270.93 324.983 270.93 325.029 270.93C325.211 270.885 325.416 270.862 325.598 270.862H396.747C396.747 270.907 396.77 270.93 396.77 270.976C397.909 275.918 400.573 282.682 406.677 287.67C406.7 287.67 406.7 287.67 406.723 287.693Z" fill="#FFA412"/>
<path d="M462.635 270.862H460.904V287.693H462.635V270.862Z" fill="#FFA412"/>
<path d="M456.828 270.862H455.097V287.693H456.828V270.862Z" fill="#FFA412"/>
<path d="M449.836 270.862H448.105V287.693H449.836V270.862Z" fill="#FFA412"/>
<path d="M439.131 270.862H437.4V287.693H439.131V270.862Z" fill="#FFA412"/>
<path d="M427.812 270.862H426.081V287.693H427.812V270.862Z" fill="#FFA412"/>
<path d="M410.458 270.862H408.727V287.693H410.458V270.862Z" fill="#FFA412"/>
<path d="M394.196 270.862H392.465V287.693H394.196V270.862Z" fill="#FFA412"/>
<path d="M379.689 270.862H377.958V287.693H379.689V270.862Z" fill="#FFA412"/>
<path d="M468.192 270.862H466.461V287.693H468.192V270.862Z" fill="#FFA412"/>
<path d="M471.859 270.862H470.128V287.693H471.859V270.862Z" fill="#FFA412"/>
<path d="M475.389 270.862H473.658V287.693H475.389V270.862Z" fill="#FFA412"/>
<path d="M478.031 270.908V287.624C477.826 287.67 477.598 287.693 477.393 287.693H476.323V270.862H477.393C477.621 270.862 477.826 270.885 478.031 270.908Z" fill="#FFA412"/>
<path d="M480.422 272.48V286.076C480.012 286.691 479.398 287.169 478.714 287.443V271.113C479.398 271.386 480.012 271.865 480.422 272.48Z" fill="#FFA412"/>
<path d="M480.741 257.812V267.31C480.741 268.061 480.513 268.767 480.104 269.359C479.694 269.974 479.079 270.453 478.395 270.726C478.236 270.794 478.054 270.84 477.872 270.885C477.826 270.908 477.781 270.908 477.735 270.908C477.53 270.954 477.302 270.976 477.097 270.976H325.712C325.552 270.976 325.393 270.976 325.234 270.954C325.165 270.954 325.12 270.931 325.051 270.931C323.412 270.635 322.136 269.223 322.045 267.515C322.045 267.446 322.045 267.401 322.045 267.332V257.835C322.045 257.767 322.045 257.699 322.045 257.653C322.136 255.717 323.753 254.168 325.712 254.168H477.097C477.188 254.168 477.302 254.168 477.393 254.191C477.439 254.191 477.484 254.191 477.507 254.214C477.553 254.214 477.598 254.214 477.644 254.237C477.667 254.237 477.712 254.237 477.735 254.26C477.963 254.305 478.19 254.373 478.395 254.442C478.418 254.465 478.464 254.465 478.486 254.487C478.509 254.51 478.555 254.51 478.578 254.533C478.646 254.556 478.692 254.601 478.76 254.624C478.828 254.67 478.896 254.692 478.965 254.738C479.033 254.783 479.079 254.806 479.147 254.852C479.215 254.897 479.284 254.943 479.329 254.988C479.375 255.034 479.42 255.057 479.466 255.102C479.489 255.125 479.534 255.148 479.557 255.193C479.648 255.284 479.739 255.376 479.83 255.467C479.853 255.489 479.876 255.512 479.899 255.558C479.921 255.581 479.944 255.626 479.967 255.649C480.012 255.717 480.058 255.763 480.104 255.831C480.513 256.355 480.741 257.061 480.741 257.812Z" fill="#FFB93E"/>
<path d="M406.404 270.976H325.302C325.234 270.976 325.165 270.976 325.12 270.976C325.051 270.976 324.983 270.954 324.915 270.954C323.366 270.749 322.136 269.291 322.045 267.515C322.045 267.446 322.045 267.401 322.045 267.332V257.835C322.045 257.767 322.045 257.699 322.045 257.653C322.136 255.717 323.571 254.168 325.302 254.168H396.451C396.474 254.305 396.519 254.442 396.542 254.578C397.726 259.452 400.346 265.989 406.267 270.863C406.29 270.908 406.358 270.931 406.404 270.976Z" fill="#FFA412"/>
<path d="M462.316 254.145H460.585V270.976H462.316V254.145Z" fill="#FFA412"/>
<path d="M456.509 254.145H454.778V270.976H456.509V254.145Z" fill="#FFA412"/>
<path d="M449.517 254.145H447.786V270.976H449.517V254.145Z" fill="#FFA412"/>
<path d="M438.812 254.145H437.082V270.976H438.812V254.145Z" fill="#FFA412"/>
<path d="M427.493 254.145H425.762V270.976H427.493V254.145Z" fill="#FFA412"/>
<path d="M410.139 254.145H408.408V270.976H410.139V254.145Z" fill="#FFA412"/>
<path d="M393.877 254.145H392.147V270.976H393.877V254.145Z" fill="#FFA412"/>
<path d="M379.37 254.145H377.639V270.976H379.37V254.145Z" fill="#FFA412"/>
<path d="M467.873 254.145H466.142V270.976H467.873V254.145Z" fill="#FFA412"/>
<path d="M471.54 254.145H469.809V270.976H471.54V254.145Z" fill="#FFA412"/>
<path d="M475.07 254.145H473.339V270.976H475.07V254.145Z" fill="#FFA412"/>
<path d="M477.712 254.214V270.93C477.507 270.976 477.279 270.999 477.074 270.999H476.004V254.168H477.074C477.302 254.145 477.507 254.168 477.712 254.214Z" fill="#FFA412"/>
<path d="M480.104 255.762V269.359C479.694 269.974 479.079 270.452 478.395 270.725V254.396C479.101 254.669 479.694 255.147 480.104 255.762Z" fill="#FFA412"/>
<path d="M488.553 241.391V250.888C488.553 251.64 488.325 252.346 487.915 252.938C487.505 253.553 486.89 254.031 486.207 254.304C486.002 254.396 485.774 254.441 485.547 254.487C485.342 254.532 485.114 254.555 484.909 254.555H333.524C332.909 254.555 332.339 254.396 331.838 254.145C330.768 253.576 329.994 252.505 329.88 251.253C329.88 251.207 329.88 251.139 329.857 251.093C329.857 251.025 329.857 250.979 329.857 250.911V241.414C329.857 241.346 329.857 241.277 329.857 241.232C329.948 239.296 331.565 237.747 333.524 237.747H484.909C485.137 237.747 485.342 237.77 485.547 237.815C485.774 237.861 486.002 237.929 486.207 237.998C486.913 238.271 487.505 238.749 487.915 239.364C488.325 239.933 488.553 240.639 488.553 241.391Z" fill="#FFB93E"/>
<path d="M414.216 254.555H333.114C332.567 254.555 332.066 254.396 331.611 254.145C330.654 253.576 329.971 252.506 329.857 251.253C329.857 251.207 329.857 251.139 329.834 251.093C329.834 251.025 329.834 250.98 329.834 250.911V241.414C329.834 241.346 329.834 241.277 329.834 241.232C329.925 239.296 331.36 237.747 333.091 237.747H404.24C405.356 242.576 407.884 249.18 413.692 254.168C413.874 254.282 414.056 254.419 414.216 254.555Z" fill="#FFA412"/>
<path d="M470.151 237.724H468.42V254.555H470.151V237.724Z" fill="#FFA412"/>
<path d="M464.32 237.724H462.59V254.555H464.32V237.724Z" fill="#FFA412"/>
<path d="M457.329 237.724H455.598V254.555H457.329V237.724Z" fill="#FFA412"/>
<path d="M446.624 237.724H444.893V254.555H446.624V237.724Z" fill="#FFA412"/>
<path d="M435.305 237.724H433.574V254.555H435.305V237.724Z" fill="#FFA412"/>
<path d="M417.951 237.724H416.22V254.555H417.951V237.724Z" fill="#FFA412"/>
<path d="M401.712 237.724H399.981V254.555H401.712V237.724Z" fill="#FFA412"/>
<path d="M387.204 237.724H385.474V254.555H387.204V237.724Z" fill="#FFA412"/>
<path d="M475.685 237.724H473.954V254.555H475.685V237.724Z" fill="#FFA412"/>
<path d="M479.352 237.724H477.621V254.555H479.352V237.724Z" fill="#FFA412"/>
<path d="M482.882 237.724H481.151V254.555H482.882V237.724Z" fill="#FFA412"/>
<path d="M485.547 237.793V254.51C485.342 254.555 485.114 254.578 484.909 254.578H483.839V237.747H484.909C485.114 237.724 485.319 237.747 485.547 237.793Z" fill="#FFA412"/>
<path d="M487.938 239.341V252.938C487.528 253.553 486.913 254.031 486.23 254.305V237.975C486.913 238.248 487.505 238.726 487.938 239.341Z" fill="#FFA412"/>
<path d="M500.92 224.561V234.058C500.92 234.81 500.692 235.516 500.282 236.108C499.872 236.723 499.257 237.201 498.574 237.474C498.369 237.565 498.141 237.611 497.914 237.656C497.709 237.702 497.481 237.725 497.276 237.725H345.891C343.932 237.725 342.338 236.176 342.224 234.24C342.224 234.172 342.224 234.103 342.224 234.058V224.561C342.224 224.492 342.224 224.424 342.224 224.379C342.315 222.602 343.704 221.144 345.458 220.94C345.595 220.917 345.754 220.917 345.891 220.917H497.276C497.504 220.917 497.709 220.94 497.914 220.985C498.141 221.031 498.369 221.099 498.574 221.167C499.28 221.441 499.872 221.919 500.282 222.534C500.692 223.103 500.92 223.809 500.92 224.561Z" fill="#FFB93E"/>
<path d="M426.582 237.725H345.481C343.75 237.725 342.292 236.176 342.224 234.24C342.224 234.172 342.224 234.103 342.224 234.058V224.561C342.224 224.492 342.224 224.424 342.224 224.379C342.315 222.602 343.545 221.144 345.094 220.94C345.23 220.917 345.344 220.917 345.481 220.917H416.63V220.94C417.768 225.882 420.433 232.714 426.582 237.725Z" fill="#FFA412"/>
<path d="M482.518 220.894H480.787V237.724H482.518V220.894Z" fill="#FFA412"/>
<path d="M476.687 220.894H474.956V237.724H476.687V220.894Z" fill="#FFA412"/>
<path d="M469.718 220.894H467.987V237.724H469.718V220.894Z" fill="#FFA412"/>
<path d="M459.014 220.894H457.283V237.724H459.014V220.894Z" fill="#FFA412"/>
<path d="M447.695 220.894H445.964V237.724H447.695V220.894Z" fill="#FFA412"/>
<path d="M430.34 220.894H428.609V237.724H430.34V220.894Z" fill="#FFA412"/>
<path d="M414.079 220.894H412.348V237.724H414.079V220.894Z" fill="#FFA412"/>
<path d="M399.571 220.894H397.84V237.724H399.571V220.894Z" fill="#FFA412"/>
<path d="M488.052 220.894H486.321V237.724H488.052V220.894Z" fill="#FFA412"/>
<path d="M491.719 220.894H489.988V237.724H491.719V220.894Z" fill="#FFA412"/>
<path d="M495.272 220.894H493.541V237.724H495.272V220.894Z" fill="#FFA412"/>
<path d="M497.914 220.962V237.679C497.709 237.724 497.481 237.747 497.276 237.747H496.205V220.916H497.276C497.481 220.894 497.709 220.916 497.914 220.962Z" fill="#FFA412"/>
<path d="M500.305 222.511V236.107C499.895 236.722 499.28 237.2 498.597 237.474V221.144C499.28 221.417 499.872 221.896 500.305 222.511Z" fill="#FFA412"/>
<path d="M481.06 207.753V217.25C481.06 218.001 480.832 218.707 480.422 219.299C480.012 219.914 479.398 220.393 478.714 220.666C478.509 220.757 478.282 220.803 478.054 220.848C477.986 220.871 477.917 220.871 477.849 220.871C477.781 220.871 477.735 220.894 477.689 220.894C477.667 220.894 477.644 220.894 477.598 220.894C477.53 220.894 477.484 220.894 477.416 220.894H326.008C324.049 220.894 322.455 219.345 322.341 217.409C322.341 217.341 322.341 217.272 322.341 217.227V207.73C322.341 207.661 322.341 207.593 322.341 207.548C322.432 205.612 324.049 204.063 326.008 204.063H477.393C477.462 204.063 477.53 204.063 477.598 204.063C477.758 204.063 477.894 204.086 478.054 204.109C478.282 204.154 478.509 204.222 478.714 204.291C478.828 204.336 478.942 204.382 479.033 204.427C479.101 204.45 479.17 204.496 479.215 204.518C479.215 204.518 479.238 204.518 479.238 204.541C479.306 204.587 479.352 204.61 479.42 204.655C479.443 204.655 479.443 204.678 479.443 204.678C479.489 204.723 479.557 204.746 479.602 204.792C479.739 204.883 479.853 204.997 479.967 205.111C480.012 205.156 480.035 205.179 480.081 205.225L480.104 205.247C480.126 205.27 480.149 205.293 480.172 205.316C480.172 205.316 480.172 205.316 480.195 205.338C480.24 205.384 480.263 205.43 480.309 205.475C480.354 205.543 480.4 205.612 480.445 205.68C480.832 206.295 481.06 207.001 481.06 207.753Z" fill="#FFB93E"/>
<path d="M406.723 220.939H325.621C323.89 220.939 322.432 219.39 322.364 217.455C322.364 217.386 322.364 217.318 322.364 217.272V207.775C322.364 207.707 322.364 207.639 322.364 207.593C322.455 205.657 323.89 204.108 325.621 204.108H396.77C396.793 204.245 396.838 204.359 396.861 204.496C398.045 209.415 400.71 216.02 406.7 220.916C406.7 220.916 406.7 220.916 406.723 220.939Z" fill="#FFA412"/>
<path d="M462.635 204.108H460.904V220.939H462.635V204.108Z" fill="#FFA412"/>
<path d="M456.828 204.108H455.097V220.939H456.828V204.108Z" fill="#FFA412"/>
<path d="M449.836 204.108H448.105V220.939H449.836V204.108Z" fill="#FFA412"/>
<path d="M439.131 204.108H437.4V220.939H439.131V204.108Z" fill="#FFA412"/>
<path d="M427.812 204.108H426.081V220.939H427.812V204.108Z" fill="#FFA412"/>
<path d="M410.458 204.108H408.727V220.939H410.458V204.108Z" fill="#FFA412"/>
<path d="M394.196 204.108H392.465V220.939H394.196V204.108Z" fill="#FFA412"/>
<path d="M379.689 204.108H377.958V220.939H379.689V204.108Z" fill="#FFA412"/>
<path d="M468.192 204.108H466.461V220.939H468.192V204.108Z" fill="#FFA412"/>
<path d="M471.859 204.108H470.128V220.939H471.859V204.108Z" fill="#FFA412"/>
<path d="M475.389 204.108H473.658V220.939H475.389V204.108Z" fill="#FFA412"/>
<path d="M478.031 204.154V220.871C477.826 220.916 477.598 220.939 477.393 220.939H476.323V204.108H477.393C477.621 204.108 477.826 204.108 478.031 204.154Z" fill="#FFA412"/>
<path d="M480.422 205.726V219.323C480.012 219.937 479.398 220.416 478.714 220.689V204.359C479.398 204.61 480.012 205.111 480.422 205.726Z" fill="#FFA412"/>
<path d="M492.174 191.332V200.829C492.174 201.581 491.947 202.287 491.537 202.879C491.127 203.494 490.512 203.972 489.828 204.245C489.623 204.337 489.396 204.382 489.168 204.428C488.963 204.473 488.735 204.496 488.53 204.496H337.145C336.553 204.496 336.006 204.359 335.505 204.109C334.412 203.562 333.615 202.446 333.501 201.171C333.501 201.125 333.501 201.08 333.501 201.011C333.501 200.943 333.501 200.875 333.501 200.829V191.332C333.501 191.264 333.501 191.195 333.501 191.15C333.592 189.373 334.981 187.916 336.735 187.711C336.872 187.688 337.031 187.688 337.168 187.688H488.553C488.781 187.688 488.986 187.711 489.191 187.756C489.419 187.802 489.646 187.87 489.851 187.939C490.557 188.212 491.149 188.69 491.559 189.305C491.947 189.852 492.174 190.558 492.174 191.332Z" fill="#FFB93E"/>
<path d="M417.837 204.496H336.735C336.211 204.496 335.71 204.359 335.277 204.109C334.298 203.562 333.592 202.446 333.478 201.171C333.478 201.125 333.478 201.08 333.478 201.011C333.478 200.943 333.478 200.875 333.478 200.829V191.332C333.478 191.264 333.478 191.195 333.478 191.15C333.569 189.373 334.799 187.916 336.348 187.711C336.485 187.688 336.598 187.688 336.735 187.688H407.884V187.711C409 192.539 411.528 199.144 417.381 204.132C417.541 204.223 417.677 204.359 417.837 204.496Z" fill="#FFA412"/>
<path d="M473.772 187.665H472.041V204.496H473.772V187.665Z" fill="#FFA412"/>
<path d="M467.942 187.665H466.211V204.496H467.942V187.665Z" fill="#FFA412"/>
<path d="M460.973 187.665H459.242V204.496H460.973V187.665Z" fill="#FFA412"/>
<path d="M450.268 187.665H448.537V204.496H450.268V187.665Z" fill="#FFA412"/>
<path d="M438.949 187.665H437.218V204.496H438.949V187.665Z" fill="#FFA412"/>
<path d="M421.572 187.665H419.841V204.496H421.572V187.665Z" fill="#FFA412"/>
<path d="M405.333 187.665H403.602V204.496H405.333V187.665Z" fill="#FFA412"/>
<path d="M390.826 187.665H389.095V204.496H390.826V187.665Z" fill="#FFA412"/>
<path d="M479.306 187.665H477.576V204.496H479.306V187.665Z" fill="#FFA412"/>
<path d="M482.973 187.665H481.242V204.496H482.973V187.665Z" fill="#FFA412"/>
<path d="M486.526 187.665H484.795V204.496H486.526V187.665Z" fill="#FFA412"/>
<path d="M489.168 187.711V204.428C488.963 204.473 488.735 204.496 488.53 204.496H487.46V187.665H488.53C488.735 187.665 488.963 187.688 489.168 187.711Z" fill="#FFA412"/>
<path d="M491.559 189.282V202.879C491.149 203.494 490.534 203.972 489.851 204.245V187.916C490.534 188.166 491.127 188.667 491.559 189.282Z" fill="#FFA412"/>
<path d="M481.06 174.524V184.021C481.06 184.773 480.832 185.479 480.422 186.071C480.012 186.686 479.398 187.164 478.714 187.437C478.509 187.528 478.282 187.574 478.054 187.619C477.986 187.642 477.917 187.642 477.849 187.642C477.803 187.642 477.781 187.642 477.735 187.665C477.689 187.665 477.667 187.665 477.621 187.665C477.553 187.665 477.484 187.665 477.416 187.665H326.008C324.049 187.665 322.455 186.116 322.341 184.18C322.341 184.112 322.341 184.044 322.341 183.998V174.501C322.341 174.433 322.341 174.364 322.341 174.319C322.432 172.383 324.049 170.834 326.008 170.834H477.393C477.621 170.834 477.826 170.857 478.031 170.903C478.259 170.948 478.487 171.016 478.691 171.085C479.398 171.358 479.99 171.836 480.4 172.451C480.832 173.066 481.06 173.772 481.06 174.524Z" fill="#FFB93E"/>
<path d="M406.723 187.688H325.621C323.89 187.688 322.432 186.139 322.364 184.203C322.364 184.135 322.364 184.066 322.364 184.021V174.524C322.364 174.455 322.364 174.387 322.364 174.341C322.455 172.406 323.89 170.857 325.621 170.857H396.77C397.909 175.799 400.551 182.632 406.7 187.665C406.7 187.665 406.7 187.688 406.723 187.688Z" fill="#FFA412"/>
<path d="M462.635 170.857H460.904V187.688H462.635V170.857Z" fill="#FFA412"/>
<path d="M456.828 170.857H455.097V187.688H456.828V170.857Z" fill="#FFA412"/>
<path d="M449.836 170.857H448.105V187.688H449.836V170.857Z" fill="#FFA412"/>
<path d="M439.131 170.857H437.4V187.688H439.131V170.857Z" fill="#FFA412"/>
<path d="M427.812 170.857H426.081V187.688H427.812V170.857Z" fill="#FFA412"/>
<path d="M410.458 170.857H408.727V187.688H410.458V170.857Z" fill="#FFA412"/>
<path d="M394.196 170.857H392.465V187.688H394.196V170.857Z" fill="#FFA412"/>
<path d="M379.689 170.857H377.958V187.688H379.689V170.857Z" fill="#FFA412"/>
<path d="M468.192 170.857H466.461V187.688H468.192V170.857Z" fill="#FFA412"/>
<path d="M471.859 170.857H470.128V187.688H471.859V170.857Z" fill="#FFA412"/>
<path d="M475.389 170.857H473.658V187.688H475.389V170.857Z" fill="#FFA412"/>
<path d="M478.031 170.902V187.619C477.826 187.665 477.598 187.688 477.393 187.688H476.323V170.857H477.393C477.621 170.857 477.826 170.88 478.031 170.902Z" fill="#FFA412"/>
<path d="M480.422 172.474V186.071C480.012 186.685 479.398 187.164 478.714 187.437V171.107C479.398 171.381 480.012 171.859 480.422 172.474Z" fill="#FFA412"/>
<path d="M402.522 329.511C435.981 296.052 435.981 241.803 402.522 208.343C369.062 174.884 314.813 174.884 281.354 208.343C247.894 241.803 247.894 296.052 281.354 329.511C314.813 362.971 369.062 362.971 402.522 329.511Z" fill="#E2810E"/>
<path d="M395.051 329.508C428.51 296.048 428.51 241.799 395.05 208.34C361.591 174.88 307.342 174.88 273.883 208.34C240.423 241.799 240.423 296.048 273.883 329.508C307.342 362.967 361.591 362.967 395.051 329.508Z" fill="#FFB93E"/>
<path d="M334.48 348.001C313.618 348.001 294.032 339.87 279.274 325.135C264.538 310.399 256.408 290.79 256.408 269.928C256.408 249.066 264.538 229.48 279.274 214.722C294.009 199.986 313.618 191.855 334.48 191.855C355.342 191.855 374.929 199.986 389.687 214.722C404.445 229.457 412.553 249.066 412.553 269.928C412.553 290.79 404.422 310.376 389.687 325.135C374.929 339.893 355.319 348.001 334.48 348.001ZM334.48 196.547C314.871 196.547 296.446 204.177 282.576 218.047C268.706 231.917 261.077 250.342 261.077 269.951C261.077 289.56 268.706 307.985 282.576 321.855C296.446 335.725 314.871 343.355 334.48 343.355C354.09 343.355 372.515 335.725 386.385 321.855C400.255 307.985 407.884 289.56 407.884 269.951C407.884 250.342 400.255 231.917 386.385 218.047C372.515 204.177 354.09 196.547 334.48 196.547Z" fill="#FFA412"/>
<path d="M345.23 292.589C345.435 290.904 345.367 289.401 345.048 288.057C344.729 286.713 344.091 285.46 343.135 284.299C342.178 283.137 340.903 281.999 339.309 280.928C337.714 279.835 335.733 278.742 333.364 277.603C329.31 275.622 325.666 273.617 322.387 271.568C319.13 269.541 316.397 267.309 314.188 264.895C311.979 262.48 310.362 259.77 309.337 256.764C308.312 253.758 308.039 250.296 308.494 246.356C308.904 242.94 309.86 239.91 311.409 237.246C312.958 234.581 314.962 232.349 317.467 230.527C319.95 228.705 322.842 227.339 326.122 226.405C329.401 225.471 333 225.061 336.94 225.152L338.466 212.284L348.828 213.514L347.28 226.564C350.924 227.475 354.181 228.865 357.027 230.709C359.874 232.554 362.22 234.786 364.042 237.405C365.864 240.024 367.162 243.008 367.937 246.379C368.688 249.749 368.848 253.416 368.369 257.424L349.671 255.215C350.241 250.41 349.603 246.675 347.758 244.033C345.913 241.391 343.18 239.865 339.605 239.432C337.669 239.204 335.961 239.273 334.503 239.66C333.045 240.024 331.793 240.639 330.768 241.482C329.743 242.325 328.946 243.35 328.377 244.579C327.784 245.809 327.42 247.176 327.238 248.656C327.056 250.136 327.124 251.503 327.397 252.756C327.693 254.008 328.308 255.215 329.242 256.354C330.176 257.493 331.474 258.632 333.114 259.748C334.754 260.863 336.803 262.048 339.286 263.323C343.294 265.373 346.893 267.445 350.149 269.495C353.383 271.545 356.094 273.8 358.303 276.214C360.512 278.651 362.129 281.384 363.154 284.367C364.179 287.374 364.452 290.813 363.997 294.707C363.587 298.237 362.585 301.335 361.036 303.977C359.464 306.641 357.437 308.85 354.955 310.627C352.473 312.403 349.557 313.724 346.255 314.59C342.93 315.455 339.309 315.842 335.391 315.728L333.979 327.685L323.685 326.455L325.097 314.544C321.567 313.77 318.196 312.563 314.985 310.968C311.774 309.374 309.018 307.279 306.695 304.705C304.372 302.132 302.641 299.034 301.502 295.39C300.363 291.769 300.067 287.533 300.637 282.727L319.335 284.937C318.993 287.783 319.107 290.198 319.677 292.202C320.246 294.206 321.134 295.846 322.341 297.144C323.548 298.442 324.96 299.422 326.623 300.082C328.263 300.742 329.971 301.175 331.747 301.38C333.774 301.631 335.596 301.562 337.191 301.244C338.785 300.902 340.151 300.333 341.29 299.535C342.429 298.738 343.34 297.736 344 296.529C344.615 295.413 345.048 294.092 345.23 292.589Z" fill="#FFA412"/>
<path d="M590.289 296.666C590.289 296.666 580.997 285.825 589.719 278.924C589.719 278.924 596.097 275.075 601.289 275.371C601.289 275.371 593.933 287.715 596.301 288.945C598.693 290.175 603.521 274.597 603.521 274.597C603.521 274.597 618.029 273.185 622.675 275.439C622.675 275.439 610.285 285.574 612.882 286.189C615.501 286.804 628.87 276.829 628.87 276.829C628.87 276.829 642.352 279.129 641.646 287.351C640.918 295.573 636.272 298.123 634.245 297.896C632.195 297.668 620.238 293.113 619.987 294.798C619.737 296.484 626.934 301.95 631.967 302.2C631.967 302.2 622.447 312.699 616.138 309.67C609.807 306.641 609.283 301.836 605.343 300.036C601.403 298.237 598.032 298.237 599.672 300.082C601.289 301.927 608.441 303.703 610.695 307.689C612.95 311.674 614.977 314.362 608.441 313.383C601.904 312.403 591.268 307.62 590.79 302.132C590.289 296.666 590.289 296.666 590.289 296.666Z" fill="#82B378"/>
<path d="M635.019 287.602C635.019 287.602 598.374 286.189 590.289 296.666C590.289 296.666 588.49 302.018 583.001 306.915L582.135 309.261C582.135 309.261 588.49 302.565 590.767 302.155C590.744 302.155 587.191 289.173 635.019 287.602Z" fill="#82B378"/>
<path d="M582.978 306.915C582.978 306.915 575.121 312.722 574.574 323.13L576.009 323.267C576.009 323.267 578.514 312.517 583.069 308.327C587.601 304.113 582.978 306.915 582.978 306.915Z" fill="#82B378"/>
<path d="M557.789 283.047C557.789 283.047 572.57 274.756 565.669 263.528C565.669 263.528 560.158 256.628 554.236 254.851C554.236 254.851 557.379 271.614 554.236 272.001C551.093 272.388 552.073 253.075 552.073 253.075C552.073 253.075 536.494 245.582 530.391 246.174C530.391 246.174 540.047 262.526 536.904 262.139C533.739 261.752 522.898 245.195 522.898 245.195C522.898 245.195 506.933 242.234 504.359 251.708C501.785 261.16 505.93 265.897 508.299 266.489C510.668 267.081 525.836 266.876 525.449 268.858C525.061 270.839 514.813 273.982 509.096 272.206C509.096 272.206 515.405 287.784 523.695 286.987C531.985 286.19 534.536 281.065 539.66 280.678C544.785 280.291 548.542 281.657 545.969 283.047C543.395 284.436 534.741 283.502 530.596 287.009C526.451 290.54 523.103 292.703 530.801 294.275C538.499 295.846 552.3 294.867 555.056 288.945C557.789 283.047 557.789 283.047 557.789 283.047Z" fill="#A8D29F"/>
<path d="M511.647 254.646C511.647 254.646 553.052 268.06 557.766 283.024C557.766 283.024 557.561 289.719 561.706 297.417V300.378C561.706 300.378 557.379 290.334 555.01 288.945C555.033 288.945 564.28 275.941 511.647 254.646Z" fill="#82B378"/>
<path d="M561.729 297.441C561.729 297.441 568.106 307.143 564.462 318.94L562.822 318.508C562.822 318.508 564.417 305.503 561.069 298.967C557.744 292.407 561.729 297.441 561.729 297.441Z" fill="#82B378"/>
<path d="M581.316 271.614C581.316 271.614 561.82 260.704 570.93 245.878C570.93 245.878 578.195 236.791 586.007 234.445C586.007 234.445 581.839 256.537 586.007 257.06C590.175 257.584 588.877 232.122 588.877 232.122C588.877 232.122 609.397 222.238 617.46 223.035C617.46 223.035 604.728 244.603 608.873 244.079C613.041 243.555 627.321 221.736 627.321 221.736C627.321 221.736 648.365 217.842 651.759 230.323C655.129 242.803 649.686 249.044 646.566 249.818C643.446 250.592 623.427 250.342 623.95 252.938C624.474 255.535 637.98 259.702 645.518 257.357C645.518 257.357 637.205 277.877 626.296 276.852C615.387 275.804 611.994 269.063 605.252 268.539C598.488 268.015 593.569 269.837 596.939 271.659C600.31 273.481 611.743 272.251 617.209 276.897C622.675 281.544 627.093 284.39 616.958 286.486C606.824 288.558 588.626 287.26 585.005 279.471C581.316 271.614 581.316 271.614 581.316 271.614Z" fill="#A8D29F"/>
<path d="M642.125 234.194C642.125 234.194 587.556 251.868 581.316 271.614C581.316 271.614 581.566 280.45 576.123 290.585V294.48C576.123 294.48 581.839 281.225 584.96 279.403C584.937 279.425 572.729 262.276 642.125 234.194Z" fill="#82B378"/>
<path d="M576.1 290.585C576.1 290.585 567.673 303.362 572.479 318.917L574.642 318.325C574.642 318.325 572.547 301.198 576.943 292.567C581.361 283.98 576.1 290.585 576.1 290.585Z" fill="#82B378"/>
<path d="M580.655 352.67C601.745 352.67 618.826 335.566 618.826 314.499H542.461C542.461 335.566 559.565 352.67 580.655 352.67Z" fill="#F1A34F"/>
<path d="M590.038 352.374C588.49 352.579 586.895 352.67 585.301 352.67C564.212 352.67 547.13 335.566 547.13 314.499H556.605C556.605 333.971 571.203 350.028 590.038 352.374Z" fill="#FFB973"/>
<path d="M619.35 354.606H541.938C541.938 352.009 544.056 349.891 546.652 349.891H614.635C617.254 349.891 619.35 352.009 619.35 354.606Z" fill="#F1A34F"/>
<path d="M619.691 314.476H541.209V315.638H619.691V314.476Z" fill="#D86713"/>
<path d="M245.202 51.0151L245.225 53.3381C245.225 53.3381 244.587 60.5806 253.515 61.6282C262.42 62.6986 269.731 62.5392 269.503 56.9593C268.706 52.6321 267.271 45.9135 267.203 42.3378C267.18 41.0169 267.271 39.6048 267.522 38.0106L250.258 37.6689L245.18 38.4888L245.202 51.0151Z" fill="#FFB27D"/>
<path d="M245.134 38.4888L245.202 51.0151C247.047 51.8578 249.097 52.3816 251.42 52.3816C259.368 52.3816 264.493 46.5512 267.18 42.3378C267.157 41.0169 267.249 39.6048 267.499 38.0106L250.236 37.6689L245.134 38.4888Z" fill="#E2915A"/>
<path d="M268.82 35.2091C266.816 46.0045 252.9 45.6401 246.888 44.9568C245.202 44.7746 244.132 44.5469 244.132 44.5469C242.219 44.0458 241.148 41.0395 240.67 37.0995C239.691 29.3104 240.921 17.8774 242.242 14.9394C244.223 10.5438 247.958 5.78385 261.965 9.2001C275.971 12.6619 271.394 21.4075 268.82 35.2091Z" fill="#FFB27D"/>
<path d="M280.208 354.56H260.484C260.621 353.535 261.145 350.369 262.056 347.477C262.375 346.475 262.739 345.496 263.172 344.63C265.085 340.804 277.27 343.241 277.27 343.241C277.27 343.241 278.408 344.22 279.274 347.91C279.684 349.55 280.025 351.736 280.208 354.56Z" fill="#233862"/>
<path d="M220.605 348.342C220.56 351.03 220.218 353.558 219.239 354.56H180.225C180.726 353.148 182.116 351.03 186.124 350.369C190.679 349.64 197.762 347.431 201.907 343.058C203.388 341.51 204.481 339.665 204.959 337.524C206.804 329.348 220.127 340.029 220.127 340.029C220.127 340.029 220.696 344.357 220.605 348.342Z" fill="#233862"/>
<path d="M246.546 260.021C245.999 263.004 245.658 265.464 245.567 267.218C244.337 291.405 225.206 346.725 221.79 348.001C216.506 350.005 208.17 345.746 203.797 344.357C201.998 343.787 200.768 341.965 201.178 340.098C210.653 296.575 214.137 233.875 215.39 196.775C216.028 178.077 219.239 165.163 219.239 165.163C219.239 165.163 265.882 152.728 266.155 168.466C266.406 182.404 250.714 237.041 246.546 260.021Z" fill="#2B478B"/>
<path d="M246.546 260.021L215.39 196.798C216.028 178.1 219.239 165.186 219.239 165.186C219.239 165.186 265.882 152.751 266.155 168.488C266.406 182.404 250.714 237.041 246.546 260.021Z" fill="#233862"/>
<path d="M236.184 168.534L260.849 347.227C260.849 347.227 271.667 349.846 280.094 347.75C280.094 347.75 287.313 252.71 286.721 229.731C286.129 206.751 291.891 168.261 285.4 164.002C278.909 159.743 236.184 168.534 236.184 168.534Z" fill="#2B478B"/>
<path d="M237.914 4.69075C237.914 4.69075 244.086 4.21248 251.352 1.04675C257.25 -1.52682 264.698 1.29728 267.135 2.57268C267.066 2.18551 266.907 1.66168 266.543 1.11508C266.543 1.11508 267.636 1.88942 267.795 2.95984C267.909 3.05094 267.955 3.0965 267.932 3.11927C267.932 3.11927 269.162 2.89153 269.959 3.25593C269.959 3.25593 269.412 3.18759 269.207 3.52922C269.184 3.57477 269.162 3.59755 269.116 3.62032C278.34 8.06145 279.183 22.6374 276.222 26.0081C272.646 30.0621 268.387 39.1948 268.387 39.1948C268.387 39.1948 266.839 37.0312 267.476 33.4783C268.114 29.9026 265.039 29.9027 261.145 28.2856C257.25 26.6686 260.507 22.1136 257.091 19.3578C253.675 16.6021 241.194 18.2191 241.353 16.1238C236.73 14.4384 237.914 5.16903 237.914 4.69075Z" fill="#233862"/>
<path d="M271.576 60.0566L265.905 181.857C265.905 181.857 218.533 182.632 219.877 171.905C221.22 161.178 236.958 63.7917 236.958 63.7917L271.576 60.0566Z" fill="#E9F3FE"/>
<path d="M288.498 129.088C285.674 137.537 291.003 165.915 292.893 175.526C293.303 177.553 293.576 178.76 293.576 178.76C287.017 189.441 262.99 189.305 262.99 189.305C258.366 168.876 255.975 136.353 255.975 136.353L274.423 55.5244L297.63 76.9557C297.63 76.9557 295.877 90.0285 293.713 103.352C291.959 113.897 290.024 124.601 288.498 129.088Z" fill="#22407A"/>
<path d="M249.074 36.9856C249.074 36.9856 248.619 38.3749 245.111 37.8738C245.111 37.8738 242.173 37.4411 242.378 35.8924C242.378 35.8924 245.339 35.0269 249.074 36.9856Z" fill="white"/>
<path d="M222.427 61.7875C222.427 61.7875 222.427 61.8103 222.427 61.833C221.311 62.9262 189.677 93.6269 183.55 105.652C177.31 117.86 212.065 142.16 212.065 142.16C212.065 142.16 214.297 143.049 215.845 142.707C214.206 156.19 212.361 168.648 213.454 173.954C215.413 183.565 224.295 186.777 224.295 186.048C224.295 185.82 226.572 151.043 229.305 133.073C235.341 93.1942 242.56 55.7749 242.56 55.7749C232.243 56.8453 222.427 61.7875 222.427 61.7875ZM203.615 110.936C203.57 110.89 203.57 110.799 203.57 110.754C203.57 109 210.266 105.106 217.531 100.551C217.622 100.459 217.667 100.414 217.667 100.414C217.667 100.414 217.667 100.414 217.69 100.414C217.554 104.149 217.576 107.816 217.804 111.232C218.214 117.563 217.759 125.125 216.984 132.845C213.5 127.425 204.276 112.917 203.615 110.936Z" fill="#22407A"/>
<path d="M272.919 55.3877C272.988 54.2262 267.476 52.6091 267.476 52.6091C267.476 52.6091 261.168 61.3547 250.782 61.4914C250.782 61.4914 253.743 67.2535 257.228 68.7338C257.228 68.7566 272.578 62.2885 272.919 55.3877Z" fill="#D9E9F9"/>
<path d="M236.206 143.823C236.457 146.67 237.755 149.312 239.873 151.247L243.175 154.299C243.995 155.074 245.316 154.96 245.999 154.072L250.099 148.879C251.192 147.49 251.716 145.713 251.534 143.959C251.147 140.019 250.441 132.458 249.871 125.147C249.416 119.226 249.029 113.464 249.006 109.956C248.915 98.7739 251.124 63.1311 251.124 63.1311L248.436 63.2677C248.436 63.2677 241.786 77.1149 238.302 95.9271C237.436 100.573 236.776 105.493 236.457 110.617C236.457 110.594 235.067 130.955 236.206 143.823Z" fill="#C65447"/>
<path d="M236.206 143.823C236.457 146.67 237.755 149.312 239.873 151.248L243.175 154.299C243.995 155.074 245.316 154.96 245.999 154.072L250.099 148.879C251.192 147.49 251.716 145.713 251.534 143.96C251.147 140.02 250.441 132.458 249.871 125.147C242.469 116.835 239.463 105.333 238.302 95.95C237.436 100.596 236.776 105.515 236.457 110.64C236.457 110.594 235.067 130.955 236.206 143.823Z" fill="#BA4C43"/>
<path d="M250.782 61.3091C250.782 61.3091 245.293 58.0523 245.271 54.5222C245.271 54.5222 241.718 54.0667 240.169 55.7976C240.169 55.7976 238.871 61.8557 240.602 65.3631C240.602 65.3631 248.505 64.156 250.782 61.3091Z" fill="#D9E9F9"/>
<path d="M254.517 60.7625L247.07 58.9861C247.07 58.9861 246.091 59.0772 246.113 60.2843C246.136 61.4913 248.209 65.0442 249.142 65.3403C250.053 65.6136 256.294 63.2222 254.517 60.7625Z" fill="#BA4C43"/>
<path d="M272.054 54.7731C272.122 53.6116 268.387 51.2202 268.387 51.2202C268.387 51.2202 261.168 59.6469 250.782 59.8064C250.782 59.8064 253.743 65.5685 257.228 67.0488C257.228 67.0488 271.712 61.6967 272.054 54.7731Z" fill="#E9F3FE"/>
<path d="M250.782 59.8061C250.782 59.8061 245.225 56.8681 245.202 53.3152C245.202 53.3152 241.854 54.7956 240.283 56.5037C240.283 56.5037 238.848 60.3299 240.579 63.8372C240.602 63.86 248.505 62.6529 250.782 59.8061Z" fill="#E9F3FE"/>
<path d="M209.856 144.142C209.856 141.045 212.589 138.539 215.663 139.018C216.506 139.154 217.28 139.496 217.827 140.202C219.945 143.003 221.949 151.202 218.214 151.567C216.688 151.726 214.729 150.656 213.226 149.517C211.7 148.355 209.878 146.533 209.878 144.597V144.142H209.856Z" fill="#FFB27D"/>
<path d="M292.893 175.526C286.106 168.466 274.354 154.55 274.787 143.14C275.334 127.152 293.69 103.352 293.69 103.352C291.982 113.897 290.046 124.601 288.52 129.088C285.673 137.56 290.98 165.915 292.893 175.526Z" fill="#233862"/>
<path d="M292.665 147.718C292.665 147.718 287.792 150.154 284.808 148.947C281.847 147.718 278.363 146.807 275.038 150.587C271.735 154.368 271.029 156.964 271.735 158.376C272.441 159.766 280.162 159.242 281.437 158.376C282.713 157.511 284.74 155.347 286.038 155.734C289.591 156.759 292.574 154.049 294.237 151.908C295.262 150.587 292.529 149.949 292.665 147.718Z" fill="#FFB27D"/>
<path d="M274.4 55.5244C274.4 55.5244 293.85 57.688 298.427 66.1375C303.005 74.6098 326.873 108.932 326.076 123.189C325.302 137.446 293.531 153.457 293.531 153.457C293.531 153.457 286.493 150.496 286.402 147.285C286.288 144.096 308.357 124.965 307.014 121.412C305.67 117.837 281.392 89.6413 279.046 80.3491C276.723 71.057 274.4 55.5244 274.4 55.5244Z" fill="#22407A"/>
<path d="M217.645 100.391C217.645 100.391 217.599 100.437 217.508 100.528C210.243 105.106 203.547 108.977 203.547 110.731C202.568 107.634 211.996 94.6976 215.048 92.0557C218.168 89.391 217.645 100.391 217.645 100.391Z" fill="#233862"/>
<path d="M268.387 51.2202C268.387 51.2202 253.629 113.054 255.975 136.353C255.975 136.353 261.395 111.46 274.468 91.0764C274.468 91.0764 269.708 86.8858 269.959 85.3371C269.959 85.3371 273.489 84.2895 276.928 84.9955C276.928 84.9955 276.541 58.3488 274.4 55.5247C272.259 52.7006 268.387 51.2202 268.387 51.2202Z" fill="#233862"/>
<path d="M245.202 53.3152C245.407 53.4063 230.558 113.737 229.328 133.05C229.328 133.05 230.809 98.5919 230.672 88.662C230.672 88.662 236.798 85.4051 236.798 84.2664C236.798 83.1276 230.262 80.053 230.262 80.053C230.262 80.053 234.407 58.8267 236.662 56.4809C238.916 54.1579 245.202 53.3152 245.202 53.3152Z" fill="#233862"/>
<path d="M416.038 170.88L456.463 170.834C461.724 170.834 466.029 166.507 466.029 161.246L466.006 143.732C466.006 138.471 461.679 134.166 456.418 134.166L415.992 134.212C410.731 134.212 406.427 138.539 406.427 143.8L406.449 161.314C406.449 166.575 410.777 170.88 416.038 170.88Z" fill="#233862"/>
<path d="M459.401 138.721C457.898 136.102 455.165 134.235 452.022 133.939C451.703 133.916 451.407 133.893 451.088 133.893H443.049V130.113C443.049 129.27 442.707 128.473 442.115 127.881C441.523 127.288 440.726 126.947 439.883 126.947H437.788H429.338H427.812C426.058 126.947 424.646 128.382 424.646 130.113V133.893L410.754 133.916C405.47 133.916 401.165 138.243 401.165 143.527L401.188 161.246C401.188 166.53 405.515 170.834 410.799 170.834L451.157 170.789C451.863 170.789 452.569 170.698 453.229 170.561C454.299 170.333 455.302 169.9 456.213 169.331C458.946 167.623 460.745 164.594 460.745 161.178L460.722 143.459C460.676 141.751 460.198 140.133 459.401 138.721ZM426.582 130.135C426.582 129.611 426.924 129.156 427.402 128.997C427.516 128.951 427.63 128.951 427.744 128.951H429.543H436.193H439.815C440.475 128.951 440.999 129.475 440.999 130.135V133.916L426.56 133.939L426.582 130.135Z" fill="#2B478B"/>
</svg>
