<svg width="24" height="31" viewBox="0 0 24 31" fill="none" xmlns="http://www.w3.org/2000/svg">
<path d="M5.71394 1.49741C3.07274 2.98836 1.18327 5.39615 0.39399 8.27667C-0.39546 11.1572 0.00983726 14.1661 1.53461 16.7487C3.56836 20.1929 7.3605 22.3326 11.4316 22.3326C12.717 22.3326 13.9924 22.1162 15.2015 21.7011L20.3378 30.4L24 28.3324L18.8646 19.635C20.5993 18.1837 21.8482 16.2589 22.4519 14.0559C23.2412 11.1754 22.8359 8.16667 21.3111 5.58389C19.2775 2.13967 15.4852 0 11.4143 0C9.4203 0 7.44913 0.517716 5.71394 1.49741ZM17.6489 7.65144C18.609 9.27753 18.8641 11.1721 18.3671 12.9857C17.8701 14.7994 16.6805 16.3153 15.0175 17.2542C13.9244 17.8713 12.6843 18.1975 11.4316 18.1975C8.86666 18.1975 6.47767 16.8501 5.197 14.6811C4.23687 13.055 3.98178 11.1607 4.47893 9.34684C4.97591 7.53318 6.16558 6.01725 7.82855 5.07824C8.92146 4.46129 10.1615 4.13511 11.4143 4.13511C13.9794 4.13511 16.3682 5.48249 17.6489 7.65144Z" fill="white"/>
</svg>
