<svg width="26" height="32" viewBox="0 0 26 32" fill="none" xmlns="http://www.w3.org/2000/svg">
<path d="M16.9126 21.0386V31.879L13.9349 30.069L12.845 29.4073L8.91365 31.8206L8.79688 31.879V21.0386H16.9126Z" fill="#95CC1D"/>
<path d="M16.9126 21.0386V30.3025L12.845 27.8309L8.79688 30.3025V21.0386H16.9126Z" fill="#A6EA23"/>
<path d="M16.913 21.0386V25.7289C16.4264 25.9236 15.901 26.0598 15.3755 26.1766C15.2198 26.2155 15.0446 26.2544 14.8695 26.2739C14.2856 26.3712 13.7017 26.4296 13.0984 26.449C13.0206 26.449 12.9233 26.449 12.8454 26.449C12.7676 26.449 12.6703 26.449 12.5924 26.449C11.9891 26.4296 11.4052 26.3712 10.8214 26.2739C10.6462 26.235 10.4905 26.2155 10.3153 26.1766C9.78986 26.0598 9.28385 25.9041 8.77783 25.7289V21.0386H16.913Z" fill="#7CA01A"/>
<g opacity="0.3">
<path d="M16.9125 24.386V27.3054L13.9348 30.069L12.8449 29.4073L8.91357 31.8206L16.9125 24.386Z" fill="white"/>
<path d="M15.5697 21.0386L8.79688 27.3443V25.0478L13.098 21.0386H15.5697Z" fill="white"/>
</g>
<path d="M24.7363 12.8255C24.7363 13.1953 24.7168 13.5845 24.6779 13.9543C24.1135 19.9097 19.1701 24.6001 13.0979 24.7169C13.0006 24.7169 12.9227 24.7169 12.8254 24.7169C11.9691 24.7169 11.1322 24.6196 10.3343 24.4444C8.9914 24.1525 7.72636 23.6465 6.59756 22.9458C5.2936 22.1479 4.16479 21.0969 3.26954 19.8903C2.27697 18.5474 1.57633 17.0099 1.20655 15.3361C1.03139 14.5382 0.934082 13.6819 0.934082 12.8255C0.934082 12.5336 0.953544 12.2417 0.973006 11.9497C1.42063 5.79969 6.55863 0.934165 12.8254 0.914703H12.8449C14.0126 0.914703 15.122 1.0704 16.1729 1.38179C17.8077 1.86835 19.3063 2.68576 20.5714 3.77564C21.7196 4.7682 22.6733 5.95539 23.3934 7.31774C24.0162 8.50493 24.4249 9.78943 24.6195 11.1712C24.6973 11.7162 24.7363 12.2806 24.7363 12.8255Z" fill="#FF8117"/>
<path d="M24.7366 12.8255H12.8452V0.934143C14.0129 0.934143 15.1223 1.08984 16.1732 1.40124C17.8081 1.88779 19.3066 2.7052 20.5717 3.79507C21.7199 4.78764 22.6736 5.97484 23.3937 7.33718C24.0165 8.52437 24.4252 9.80887 24.6198 11.1907C24.6976 11.7162 24.7366 12.2806 24.7366 12.8255Z" fill="#FF650B"/>
<path d="M12.8455 12.8256V24.7169C11.9891 24.7169 11.1523 24.6196 10.3543 24.4445C9.01142 24.1525 7.74638 23.6465 6.61758 22.9459C5.31362 22.1479 4.18481 21.097 3.28956 19.8903C2.29699 18.5474 1.59635 17.0099 1.22657 15.3362C1.05141 14.5382 0.954102 13.6819 0.954102 12.8256H12.8455Z" fill="#FF650B"/>
<path d="M22.6153 12.8256C22.6153 13.137 22.5958 13.4484 22.5764 13.7403C22.1288 18.6253 18.0612 22.4788 13.0789 22.5761C13.001 22.5761 12.9426 22.5761 12.8648 22.5761C12.1641 22.5761 11.483 22.4983 10.8213 22.362C9.71192 22.1285 8.68043 21.7003 7.74624 21.1359C6.67583 20.4742 5.76111 19.6179 5.02155 18.6253C4.20414 17.5354 3.62027 16.2509 3.32834 14.8886C3.19211 14.2269 3.11426 13.5457 3.11426 12.8256C3.11426 12.592 3.11426 12.339 3.13372 12.1055C3.5035 7.04534 7.70732 3.0556 12.8648 3.0556H12.8842C13.8379 3.0556 14.7526 3.19184 15.6284 3.44485C16.9713 3.83409 18.1974 4.51526 19.2484 5.41052C20.1825 6.22793 20.9805 7.20104 21.5643 8.31038C22.0704 9.28348 22.4207 10.3344 22.5764 11.4632C22.5764 11.9109 22.6153 12.378 22.6153 12.8256Z" fill="#FFA117"/>
<path d="M12.8448 3.44485C13.74 3.44485 14.6353 3.56162 15.4721 3.81462C16.7566 4.1844 17.9244 4.82665 18.9364 5.70245C19.8511 6.48093 20.6102 7.43458 21.1551 8.48553C21.6611 9.43918 21.9725 10.4512 22.1282 11.5216C22.1866 11.9303 22.2255 12.378 22.2255 12.8256C22.2255 13.137 22.206 13.4289 22.1866 13.7014C21.739 18.4307 17.8271 22.0896 13.0588 22.1869C12.981 22.1869 12.9226 22.1869 12.8448 22.1869C12.1831 22.1869 11.5213 22.109 10.8791 21.9728C9.82813 21.7587 8.83556 21.35 7.92085 20.7856C6.88935 20.1628 6.01356 19.3454 5.29346 18.3723C4.49551 17.3019 3.95057 16.0952 3.65864 14.7718C3.52241 14.1295 3.44456 13.4678 3.44456 12.7867C3.44456 12.5726 3.44456 12.339 3.46402 12.1055C3.63918 9.75057 4.69013 7.55135 6.42226 5.93599C8.19332 4.35956 10.4509 3.44485 12.8448 3.44485ZM12.8448 3.0556C7.6873 3.0556 3.46402 7.04534 3.1137 12.1055C3.09424 12.339 3.09424 12.5726 3.09424 12.8256C3.09424 13.5262 3.17209 14.2269 3.30832 14.8886C3.60025 16.2704 4.18412 17.5354 5.00153 18.6253C5.74109 19.6373 6.67527 20.4742 7.72622 21.1359C8.66041 21.7198 9.6919 22.1285 10.8012 22.362C11.463 22.4983 12.1441 22.5761 12.8448 22.5761C12.9226 22.5761 12.981 22.5761 13.0588 22.5761C18.0412 22.4593 22.1087 18.6253 22.5564 13.7403C22.5953 13.4289 22.5953 13.137 22.5953 12.8256C22.5953 12.3585 22.5564 11.9109 22.498 11.4827C22.3423 10.3539 21.992 9.28348 21.4859 8.32984C20.9021 7.2205 20.1236 6.22793 19.17 5.42998C18.1385 4.53472 16.9123 3.85355 15.55 3.46431C14.7131 3.19184 13.7984 3.0556 12.8448 3.0556Z" fill="white"/>
<g opacity="0.2">
<path d="M16.4455 0.506016L0.291932 15.5308C0.0973106 14.655 0 13.7597 0 12.8255C0 12.5141 0.0194615 12.2028 0.0389237 11.8914L12.8255 0H12.845C14.11 0 15.3167 0.17516 16.4455 0.506016Z" fill="white"/>
<path d="M25.69 12.8255C25.69 13.2343 25.6705 13.643 25.6316 14.0322L13.1369 25.6511C13.0396 25.6511 12.9423 25.6511 12.845 25.6511C11.9302 25.6511 11.0155 25.5538 10.1592 25.3592L25.5537 11.035C25.6316 11.6384 25.69 12.2222 25.69 12.8255Z" fill="white"/>
<path d="M24.2301 6.90906L6.13028 23.7633C4.72901 22.9069 3.50289 21.7781 2.52979 20.4547L21.194 3.09448C22.4395 4.14544 23.471 5.4494 24.2301 6.90906Z" fill="white"/>
</g>
<path d="M25.6703 12.5531C25.6508 11.8914 25.5924 11.2491 25.4756 10.6069C25.4367 10.4317 25.3978 10.2371 25.3589 10.0619C25.2226 9.41968 25.028 8.79689 24.7945 8.19356C24.7361 8.0184 24.6582 7.84324 24.5804 7.66808C24.3079 7.06476 23.9965 6.50036 23.6657 5.95542C23.5683 5.79972 23.4516 5.64402 23.3543 5.48833C22.9845 4.94339 22.5563 4.45683 22.1087 3.97028C21.9725 3.83405 21.8362 3.69781 21.7194 3.58104C21.2524 3.13341 20.7463 2.7247 20.2014 2.33546C20.0457 2.21869 19.89 2.12138 19.7343 2.02407C19.1894 1.67375 18.6055 1.36236 18.0216 1.10935C17.8465 1.0315 17.6713 0.953652 17.4962 0.895266C16.8928 0.66172 16.2701 0.4671 15.6278 0.330865C15.4526 0.291941 15.258 0.253016 15.0829 0.214091C14.4406 0.0973187 13.7984 0.0389323 13.1367 0.0194702C13.0393 0.0194702 12.942 0.0194702 12.8642 0.0194702C12.7669 0.0194702 12.6696 0.0194702 12.5917 0.0194702C11.93 0.0389323 11.2877 0.0973187 10.6455 0.214091C10.4509 0.253016 10.2757 0.291941 10.1006 0.330865C9.45831 0.4671 8.83552 0.66172 8.2322 0.895266C8.05704 0.953652 7.88188 1.0315 7.70672 1.10935C7.10339 1.38182 6.53899 1.67375 5.99405 2.02407C5.83836 2.12138 5.68266 2.23815 5.52696 2.33546C4.98202 2.70524 4.49547 3.13341 4.00892 3.58104C3.87268 3.71727 3.73645 3.85351 3.61967 3.97028C3.17205 4.43737 2.76334 4.94339 2.3741 5.48833C2.25732 5.64402 2.16002 5.79972 2.0627 5.95542C1.71239 6.50036 1.40099 7.08422 1.14798 7.66808C1.07013 7.84324 0.992287 8.0184 0.933901 8.19356C0.700355 8.79689 0.505732 9.41968 0.369498 10.0619C0.330573 10.2371 0.291651 10.4317 0.252727 10.6069C0.135954 11.2491 0.0775676 11.8914 0.0581055 12.5531C0.0581055 12.6504 0.0581055 12.7477 0.0581055 12.8255C0.0581055 12.9229 0.0581055 13.0202 0.0581055 13.098C0.0775676 13.7597 0.135954 14.402 0.252727 15.0442C0.291651 15.2389 0.330573 15.414 0.369498 15.5892C0.505732 16.2314 0.700355 16.8542 0.933901 17.4575C0.992287 17.6327 1.07013 17.8078 1.14798 17.983C1.42045 18.5863 1.71239 19.1507 2.0627 19.6957C2.16002 19.8514 2.27679 20.0071 2.3741 20.1628C2.74388 20.7077 3.17205 21.1943 3.61967 21.6808C3.75591 21.817 3.89214 21.9533 4.00892 22.0701C4.47601 22.5177 4.98202 22.9264 5.52696 23.3156C5.68266 23.4324 5.83836 23.5297 5.99405 23.627C6.53899 23.9773 7.12286 24.2887 7.70672 24.5417C7.88188 24.6196 8.05704 24.6974 8.2322 24.7558C8.83552 24.9894 9.45831 25.184 10.1006 25.3202C10.2757 25.3592 10.4703 25.3981 10.6455 25.437C11.2877 25.5538 11.93 25.6122 12.5917 25.6316C12.689 25.6316 12.7863 25.6316 12.8642 25.6316C12.9615 25.6316 13.0588 25.6316 13.1367 25.6316C13.7984 25.6122 14.4406 25.5538 15.0829 25.437C15.258 25.3981 15.4526 25.3592 15.6278 25.3202C16.2701 25.184 16.8928 24.9894 17.4962 24.7558C17.6713 24.6974 17.8465 24.6196 18.0216 24.5417C18.625 24.2693 19.1894 23.9579 19.7343 23.627C19.89 23.5297 20.0457 23.4129 20.2014 23.3156C20.7463 22.9459 21.2329 22.5177 21.7194 22.0701C21.8557 21.9338 21.9919 21.7976 22.1087 21.6808C22.5563 21.2137 22.965 20.7077 23.3543 20.1628C23.471 20.0071 23.5683 19.8514 23.6657 19.6957C24.016 19.1507 24.3274 18.5669 24.5804 17.983C24.6582 17.8078 24.7361 17.6327 24.7945 17.4575C25.028 16.8542 25.2226 16.2314 25.3589 15.5892C25.3978 15.414 25.4367 15.2194 25.4756 15.0442C25.5924 14.402 25.6508 13.7597 25.6703 13.098C25.6703 13.0007 25.6703 12.9034 25.6703 12.8255C25.6897 12.7282 25.6897 12.6504 25.6703 12.5531ZM23.6462 14.6939C23.6073 14.8885 23.5683 15.0637 23.5294 15.2389C23.4127 15.7643 23.257 16.2703 23.0623 16.7569C23.0039 16.9321 22.9261 17.1072 22.8482 17.2824C22.6342 17.7689 22.3812 18.236 22.0892 18.6836C21.9919 18.8393 21.8751 18.995 21.7778 19.1507C21.4664 19.5789 21.1356 19.9876 20.7658 20.3769C20.6296 20.5131 20.4933 20.6493 20.3766 20.7661C19.9873 21.1359 19.5786 21.4667 19.1504 21.7781C18.9947 21.8949 18.8391 21.9922 18.6834 22.0895C18.2357 22.362 17.7686 22.615 17.2821 22.8485C17.1069 22.9264 16.9318 23.0042 16.7566 23.0626C16.2701 23.2572 15.764 23.4129 15.2386 23.5297C15.0634 23.5686 14.8688 23.6076 14.6936 23.6465C14.1876 23.7438 13.6427 23.7827 13.1172 23.8022C13.0199 23.8022 12.9226 23.8022 12.8447 23.8022C12.7474 23.8022 12.6501 23.8022 12.5723 23.8022C12.0273 23.7827 11.5018 23.7438 10.9958 23.6465C10.8012 23.6076 10.626 23.5686 10.4509 23.5297C9.9254 23.4129 9.41938 23.2572 8.93283 23.0626C8.75767 23.0042 8.58251 22.9264 8.40735 22.8485C7.9208 22.6345 7.45371 22.3814 7.00608 22.0895C6.85039 21.9922 6.69469 21.8754 6.53899 21.7781C6.11083 21.4667 5.70212 21.1359 5.31288 20.7661C5.17664 20.6299 5.04041 20.4936 4.92364 20.3769C4.55386 19.9876 4.223 19.5789 3.91161 19.1507C3.79483 18.995 3.69752 18.8393 3.60021 18.6836C3.32774 18.236 3.07473 17.7689 2.84119 17.2824C2.76334 17.1072 2.68549 16.9321 2.6271 16.7569C2.43248 16.2703 2.27679 15.7643 2.16002 15.2389C2.12109 15.0637 2.08217 14.8691 2.04324 14.6939C1.94593 14.1879 1.90701 13.643 1.88754 13.1175C1.88754 13.0202 1.88754 12.9229 1.88754 12.845C1.88754 12.7477 1.88754 12.6504 1.88754 12.5725C1.90701 12.0276 1.94593 11.5021 2.04324 10.9961C2.08217 10.8015 2.12109 10.6263 2.16002 10.4512C2.27679 9.92569 2.43248 9.41967 2.6271 8.93312C2.68549 8.75796 2.76334 8.5828 2.84119 8.40765C3.05527 7.92109 3.30828 7.454 3.60021 7.00637C3.69752 6.85067 3.8143 6.69498 3.91161 6.53928C4.223 6.11111 4.55386 5.70241 4.92364 5.31317C5.05987 5.17693 5.19611 5.0407 5.31288 4.92392C5.70212 4.55414 6.11083 4.22329 6.53899 3.91189C6.69469 3.79512 6.85039 3.69781 7.00608 3.6005C7.45371 3.32803 7.9208 3.07502 8.40735 2.84148C8.58251 2.76363 8.75767 2.68578 8.93283 2.62739C9.41938 2.43277 9.9254 2.27708 10.4509 2.1603C10.626 2.12138 10.8207 2.08245 10.9958 2.04353C11.5018 1.94622 12.0468 1.9073 12.5723 1.88784C12.6696 1.88784 12.7669 1.88784 12.8447 1.88784C12.942 1.88784 13.0393 1.88784 13.1172 1.88784C13.6621 1.9073 14.1876 1.94622 14.6936 2.04353C14.8882 2.08245 15.0634 2.12138 15.2386 2.1603C15.764 2.27708 16.2701 2.43277 16.7566 2.62739C16.9318 2.68578 17.1069 2.76363 17.2821 2.84148C17.7686 3.05556 18.2357 3.30857 18.6834 3.6005C18.8391 3.69781 18.9947 3.81458 19.1504 3.91189C19.5786 4.22329 19.9873 4.55414 20.3766 4.92392C20.5128 5.06016 20.649 5.19639 20.7658 5.31317C21.1356 5.70241 21.4664 6.11111 21.7778 6.53928C21.8946 6.69498 21.9919 6.85067 22.0892 7.00637C22.3617 7.454 22.6147 7.92109 22.8482 8.40765C22.9261 8.5828 23.0039 8.75796 23.0623 8.93312C23.257 9.41967 23.4127 9.92569 23.5294 10.4512C23.5683 10.6263 23.6073 10.8209 23.6462 10.9961C23.7435 11.5021 23.7824 12.0471 23.8019 12.5725C23.8019 12.6698 23.8019 12.7672 23.8019 12.845C23.8019 12.9423 23.8019 13.0396 23.8019 13.1175C23.7824 13.643 23.7435 14.1684 23.6462 14.6939Z" fill="#FFE217"/>
<path d="M12.845 0.934113C6.28624 0.934113 0.953613 6.26673 0.953613 12.8255C0.953613 19.3842 6.28624 24.7168 12.845 24.7168C19.4037 24.7168 24.7363 19.3842 24.7363 12.8255C24.7363 6.26673 19.4232 0.934113 12.845 0.934113ZM12.845 23.7826C6.81171 23.7826 1.8878 18.8782 1.8878 12.8255C1.8878 6.79221 6.79225 1.8683 12.845 1.8683C18.8782 1.8683 23.8021 6.77275 23.8021 12.8255C23.8021 18.8782 18.8977 23.7826 12.845 23.7826Z" fill="#FFD317"/>
</svg>
