<svg width="24" height="24" viewBox="0 0 24 24" fill="none" xmlns="http://www.w3.org/2000/svg">
<path d="M0 12.8407C0 11.9345 0 11.0283 0 10.122C0.0124999 10.047 0.0249998 9.97201 0.0312498 9.89701C0.162499 8.49702 0.256248 7.09702 0.424997 5.70328C0.731245 3.2533 2.78748 1.01581 5.20622 0.515816C6.99371 0.147068 8.81244 0.0470701 10.6312 0.00957034C12.6562 -0.0341794 14.6749 0.0720684 16.6874 0.328317C17.8124 0.472066 18.8811 0.747066 19.8124 1.41581C21.2499 2.44706 22.2311 3.7783 22.5186 5.55328C22.9249 8.03452 23.0249 10.5408 22.9311 13.047C22.9186 13.4657 22.8936 13.8782 22.8686 14.3157C20.0436 12.2907 16.7061 13.1282 14.9312 14.872C13.2749 16.4907 12.1749 19.8719 14.3124 22.8782C13.7187 22.9032 13.1437 22.9407 12.5687 22.9532C10.2624 23.0032 7.9687 22.8782 5.67496 22.5469C3.26873 22.2032 0.974994 20.1532 0.512497 17.7657C0.287498 16.6095 0.212499 15.4282 0.0812495 14.2595C0.0374998 13.7907 0.0249998 13.3157 0 12.8407ZM11.4687 8.20327C13.3687 8.20327 15.2624 8.20952 17.1624 8.20327C17.8249 8.20327 18.3811 7.70952 18.4624 7.08453C18.5499 6.39703 18.1686 5.78453 17.5186 5.60953C17.3311 5.55953 17.1311 5.55328 16.9374 5.55328C14.1249 5.54703 11.3124 5.55328 8.49995 5.55328C7.6312 5.55328 6.76871 5.55328 5.89996 5.55328C5.45622 5.55328 5.06247 5.68454 4.78122 6.04078C4.43747 6.47203 4.37497 6.95328 4.60622 7.44702C4.83747 7.94077 5.24997 8.20952 5.79996 8.20952C7.6937 8.20952 9.58119 8.20327 11.4687 8.20327ZM9.13744 11.1033C8.0187 11.1033 6.90621 11.097 5.78746 11.1033C5.07497 11.1095 4.50622 11.6657 4.48747 12.372C4.46247 13.1845 5.05622 13.7532 5.94371 13.7595C8.07495 13.7657 10.2062 13.7595 12.3437 13.7595C12.5062 13.7595 12.6749 13.747 12.8312 13.7032C13.4812 13.5282 13.8749 12.922 13.7874 12.2345C13.7124 11.6032 13.1562 11.1095 12.4937 11.1033C11.3749 11.097 10.2562 11.1033 9.13744 11.1033Z" fill="#0277FA"/>
<path d="M18.75 23.9969C18.4938 23.9407 18.2313 23.8969 17.975 23.8282C15.7938 23.2344 14.3126 21.1907 14.4438 18.9782C14.5813 16.6907 16.2625 14.8345 18.5125 14.4907C21.1375 14.0907 23.625 15.9657 23.9562 18.5907C23.9625 18.6407 23.9875 18.6969 24 18.7469C24 19.0594 24 19.3719 24 19.6844C23.9875 19.7344 23.9687 19.7844 23.9562 19.8407C23.6187 21.8719 22.4625 23.1969 20.5 23.8157C20.2375 23.8969 19.9563 23.9407 19.6813 23.9969C19.375 23.9969 19.0625 23.9969 18.75 23.9969ZM20.1063 20.4157C20.1063 20.0469 20.1063 19.6844 20.1063 19.3157C20.1063 19.3032 20.1063 19.2844 20.1063 19.2719C20.1 18.7407 19.725 18.3594 19.2188 18.3594C18.7125 18.3594 18.3313 18.7469 18.3313 19.2782C18.325 20.0407 18.325 20.8094 18.3313 21.5719C18.3375 22.0969 18.725 22.4907 19.225 22.4907C19.725 22.4907 20.1063 22.0969 20.1125 21.5719C20.1125 21.1782 20.1063 20.7969 20.1063 20.4157ZM19.1813 15.9595C19.1063 15.9657 19.0063 15.9657 18.9 15.972C18.5188 15.997 18.35 16.1657 18.325 16.5407C18.3125 16.6907 18.3125 16.8345 18.3188 16.9845C18.3313 17.5782 18.4813 17.7282 19.075 17.7469C19.1188 17.7469 19.1688 17.7532 19.2125 17.7532C19.9438 17.7532 20.1063 17.5969 20.1063 16.8595C20.1063 16.1157 19.9563 15.9595 19.1813 15.9595Z" fill="#0277FA"/>
</svg>
